<svg width="450" height="175" viewBox="0 0 450 175" fill="none" xmlns="http://www.w3.org/2000/svg">
<path d="M149.976 63.776H136.152V100H125.656V63.776H111.768V54.56H149.976V63.776ZM173.52 75.168C171.045 75.2107 168.805 75.616 166.8 76.384C164.794 77.152 163.344 78.304 162.448 79.84V100H152.208V66.4H161.616V73.184C162.768 70.9227 164.261 69.152 166.096 67.872C167.93 66.592 169.85 65.9307 171.856 65.888C172.709 65.888 173.264 65.9093 173.52 65.952V75.168ZM175.471 89.952C175.471 87.7333 176.089 85.792 177.327 84.128C178.564 82.464 180.271 81.1627 182.447 80.224C184.623 79.2427 187.119 78.752 189.935 78.752C191.3 78.752 192.644 78.88 193.967 79.136C195.289 79.3493 196.441 79.6693 197.423 80.096V78.624C197.423 74.8267 195.183 72.928 190.703 72.928C188.825 72.928 187.055 73.248 185.391 73.888C183.769 74.528 182.041 75.4453 180.207 76.64L177.135 70.112C181.572 67.2107 186.436 65.76 191.727 65.76C196.761 65.76 200.665 66.976 203.439 69.408C206.255 71.7973 207.663 75.2747 207.663 79.84V88.608C207.663 89.632 207.812 90.3573 208.111 90.784C208.452 91.2107 209.028 91.4453 209.839 91.488V100C208.943 100.171 208.132 100.299 207.407 100.384C206.681 100.469 206.041 100.512 205.487 100.512C203.567 100.512 202.095 100.128 201.071 99.36C200.089 98.592 199.471 97.5467 199.215 96.224L199.023 94.752C197.529 96.672 195.737 98.144 193.647 99.168C191.556 100.149 189.401 100.64 187.183 100.64C184.964 100.64 182.959 100.171 181.167 99.232C179.417 98.2933 178.031 97.0347 177.007 95.456C175.983 93.8347 175.471 92 175.471 89.952ZM195.823 91.232C196.889 90.3787 197.423 89.504 197.423 88.608V85.6C196.527 85.2587 195.545 85.0027 194.479 84.832C193.455 84.6187 192.516 84.512 191.663 84.512C189.743 84.512 188.164 84.9387 186.927 85.792C185.732 86.6453 185.135 87.7333 185.135 89.056C185.135 90.208 185.583 91.2107 186.479 92.064C187.417 92.8747 188.655 93.28 190.191 93.28C191.215 93.28 192.239 93.088 193.263 92.704C194.287 92.32 195.14 91.8293 195.823 91.232ZM222.412 100L210.508 66.4H221.068L228.428 90.784L235.788 66.4H245.388L233.548 100H222.412ZM264.209 100.64C260.412 100.64 257.169 99.8507 254.481 98.272C251.793 96.6933 249.724 94.6027 248.273 92C246.865 89.3973 246.161 86.5813 246.161 83.552C246.161 80.3093 246.865 77.344 248.273 74.656C249.681 71.968 251.729 69.8133 254.417 68.192C257.105 66.5707 260.369 65.76 264.209 65.76C268.006 65.76 271.249 66.5707 273.937 68.192C276.625 69.8133 278.652 71.9467 280.017 74.592C281.425 77.2373 282.129 80.0747 282.129 83.104C282.129 84.3413 282.044 85.4293 281.873 86.368H257.041C257.212 88.6293 258.022 90.3573 259.473 91.552C260.966 92.704 262.652 93.28 264.529 93.28C266.022 93.28 267.452 92.9173 268.817 92.192C270.182 91.4667 271.121 90.4853 271.633 89.248L280.337 91.68C279.014 94.3253 276.945 96.48 274.129 98.144C271.356 99.808 268.049 100.64 264.209 100.64ZM256.785 80.096H271.377C271.164 77.9627 270.374 76.2773 269.009 75.04C267.686 73.76 266.044 73.12 264.081 73.12C262.118 73.12 260.454 73.76 259.089 75.04C257.766 76.32 256.998 78.0053 256.785 80.096ZM286.642 53.28H296.882V88.032C296.882 89.44 297.138 90.4427 297.65 91.04C298.162 91.6373 298.887 91.936 299.826 91.936C300.466 91.936 301.106 91.8507 301.746 91.68C302.429 91.4667 303.026 91.232 303.538 90.976L304.882 98.656C303.602 99.2533 302.13 99.7227 300.466 100.064C298.802 100.405 297.245 100.576 295.794 100.576C292.893 100.576 290.631 99.808 289.01 98.272C287.431 96.736 286.642 94.5173 286.642 91.616V53.28ZM324.208 100.64C320.368 100.64 317.104 99.8293 314.416 98.208C311.77 96.5867 309.744 94.4533 308.336 91.808C306.928 89.1627 306.224 86.304 306.224 83.232C306.224 80.1173 306.928 77.2373 308.336 74.592C309.744 71.9467 311.792 69.8133 314.48 68.192C317.168 66.5707 320.41 65.76 324.208 65.76C328.005 65.76 331.248 66.5707 333.936 68.192C336.624 69.8133 338.672 71.9467 340.08 74.592C341.488 77.2373 342.192 80.1173 342.192 83.232C342.192 86.304 341.488 89.1627 340.08 91.808C338.672 94.4533 336.624 96.5867 333.936 98.208C331.248 99.8293 328.005 100.64 324.208 100.64ZM316.72 83.232C316.72 85.8347 317.424 87.9467 318.832 89.568C320.282 91.1893 322.074 92 324.208 92C326.298 92 328.048 91.1893 329.456 89.568C330.906 87.9467 331.632 85.8347 331.632 83.232C331.632 80.6293 330.906 78.5173 329.456 76.896C328.048 75.2747 326.298 74.464 324.208 74.464C322.074 74.464 320.282 75.2747 318.832 76.896C317.424 78.5173 316.72 80.6293 316.72 83.232ZM400.39 100H390.15V81.12C390.15 78.944 389.745 77.344 388.934 76.32C388.123 75.296 387.078 74.784 385.798 74.784C384.433 74.784 383.089 75.3387 381.766 76.448C380.443 77.5573 379.505 78.9867 378.95 80.736V100H368.71V81.12C368.71 78.9013 368.305 77.3013 367.494 76.32C366.683 75.296 365.638 74.784 364.358 74.784C362.993 74.784 361.649 75.3387 360.326 76.448C359.046 77.5573 358.107 78.9867 357.51 80.736V100H347.27V66.4H356.486V72.032C357.723 70.0267 359.409 68.4907 361.542 67.424C363.675 66.3147 366.129 65.76 368.902 65.76C371.675 65.76 373.809 66.4213 375.302 67.744C376.795 69.024 377.755 70.5387 378.182 72.288C379.462 70.24 381.147 68.64 383.238 67.488C385.371 66.336 387.761 65.76 390.406 65.76C392.539 65.76 394.246 66.1653 395.526 66.976C396.849 67.744 397.851 68.768 398.534 70.048C399.259 71.328 399.75 72.7147 400.006 74.208C400.262 75.6587 400.39 77.088 400.39 78.496V100ZM404.971 89.952C404.971 87.7333 405.589 85.792 406.827 84.128C408.064 82.464 409.771 81.1627 411.947 80.224C414.123 79.2427 416.619 78.752 419.435 78.752C420.8 78.752 422.144 78.88 423.467 79.136C424.789 79.3493 425.941 79.6693 426.923 80.096V78.624C426.923 74.8267 424.683 72.928 420.203 72.928C418.325 72.928 416.555 73.248 414.891 73.888C413.269 74.528 411.541 75.4453 409.707 76.64L406.635 70.112C411.072 67.2107 415.936 65.76 421.227 65.76C426.261 65.76 430.165 66.976 432.939 69.408C435.755 71.7973 437.163 75.2747 437.163 79.84V88.608C437.163 89.632 437.312 90.3573 437.611 90.784C437.952 91.2107 438.528 91.4453 439.339 91.488V100C438.443 100.171 437.632 100.299 436.907 100.384C436.181 100.469 435.541 100.512 434.987 100.512C433.067 100.512 431.595 100.128 430.571 99.36C429.589 98.592 428.971 97.5467 428.715 96.224L428.523 94.752C427.029 96.672 425.237 98.144 423.147 99.168C421.056 100.149 418.901 100.64 416.683 100.64C414.464 100.64 412.459 100.171 410.667 99.232C408.917 98.2933 407.531 97.0347 406.507 95.456C405.483 93.8347 404.971 92 404.971 89.952ZM425.323 91.232C426.389 90.3787 426.923 89.504 426.923 88.608V85.6C426.027 85.2587 425.045 85.0027 423.979 84.832C422.955 84.6187 422.016 84.512 421.163 84.512C419.243 84.512 417.664 84.9387 416.427 85.792C415.232 86.6453 414.635 87.7333 414.635 89.056C414.635 90.208 415.083 91.2107 415.979 92.064C416.917 92.8747 418.155 93.28 419.691 93.28C420.715 93.28 421.739 93.088 422.763 92.704C423.787 92.32 424.64 91.8293 425.323 91.232Z" fill="white"/>
<path d="M3.625 130.602H134.125C134.798 130.602 135.458 130.812 136.031 131.209C136.603 131.606 137.066 132.173 137.367 132.848C137.668 133.523 137.796 134.278 137.735 135.029C137.675 135.781 137.429 136.499 137.025 137.102L121.8 159.852C121.125 160.861 120.249 161.68 119.242 162.244C116.526 162.663 90.7781 174.849 70.5 174C50.2219 173.151 39.2331 171.63 21.75 163.102C20.6245 163.102 19.5144 162.808 18.5077 162.244C17.501 161.68 16.6253 160.861 15.95 159.852L0.725 137.102C0.321077 136.499 0.0751061 135.781 0.0146484 135.029C-0.0458092 134.278 0.0816351 133.523 0.382702 132.848C0.683769 132.173 1.14656 131.606 1.71923 131.209C2.29189 130.812 2.9518 130.602 3.625 130.602ZM90.625 4.05527V106.227C90.625 108.382 91.125 125.102 89.1466 126.602C87.787 128.125 87.9254 127.602 86.0026 127.602H47.6466H5.64659C4.96448 127.6 5.72371 116.009 5.14659 115.602C4.56948 115.194 5.01465 113.657 5.14659 113.102C4.85127 112.412 7.14659 110.102 7.14659 109.602C7.64659 109.102 7.91186 108.352 8.3375 107.755L84.1725 1.52027C84.6419 0.864509 85.2814 0.388123 86.0026 0.156799C86.7238 -0.0745243 87.4913 -0.0493895 88.1992 0.228738C88.9072 0.506866 89.5207 1.02429 89.9552 1.70965C90.3896 2.39501 90.6237 3.21455 90.625 4.05527Z" fill="white"/>
</svg>
