<svg width="336" height="50" viewBox="0 0 336 50" fill="none" xmlns="http://www.w3.org/2000/svg">
<path d="M39.976 11.776H26.152V48H15.656V11.776H1.768V2.56H39.976V11.776ZM65.582 23.168C63.1073 23.2107 60.8673 23.616 58.862 24.384C56.8567 25.152 55.406 26.304 54.51 27.84V48H44.27V14.4H53.678V21.184C54.83 18.9227 56.3233 17.152 58.158 15.872C59.9927 14.592 61.9127 13.9307 63.918 13.888C64.7713 13.888 65.326 13.9093 65.582 13.952V23.168ZM67.783 37.952C67.783 35.7333 68.4017 33.792 69.639 32.128C70.8763 30.464 72.583 29.1627 74.759 28.224C76.935 27.2427 79.431 26.752 82.247 26.752C83.6123 26.752 84.9563 26.88 86.279 27.136C87.6017 27.3493 88.7537 27.6693 89.735 28.096V26.624C89.735 22.8267 87.495 20.928 83.015 20.928C81.1377 20.928 79.367 21.248 77.703 21.888C76.0817 22.528 74.3537 23.4453 72.519 24.64L69.447 18.112C73.8843 15.2107 78.7483 13.76 84.039 13.76C89.0737 13.76 92.9777 14.976 95.751 17.408C98.567 19.7973 99.975 23.2747 99.975 27.84V36.608C99.975 37.632 100.124 38.3573 100.423 38.784C100.764 39.2107 101.34 39.4453 102.151 39.488V48C101.255 48.1707 100.444 48.2987 99.719 48.384C98.9937 48.4693 98.3537 48.512 97.799 48.512C95.879 48.512 94.407 48.128 93.383 47.36C92.4017 46.592 91.783 45.5467 91.527 44.224L91.335 42.752C89.8417 44.672 88.0497 46.144 85.959 47.168C83.8683 48.1493 81.7137 48.64 79.495 48.64C77.2763 48.64 75.271 48.1707 73.479 47.232C71.7297 46.2933 70.343 45.0347 69.319 43.456C68.295 41.8347 67.783 40 67.783 37.952ZM88.135 39.232C89.2017 38.3787 89.735 37.504 89.735 36.608V33.6C88.839 33.2587 87.8577 33.0027 86.791 32.832C85.767 32.6187 84.8283 32.512 83.975 32.512C82.055 32.512 80.4763 32.9387 79.239 33.792C78.0443 34.6453 77.447 35.7333 77.447 37.056C77.447 38.208 77.895 39.2107 78.791 40.064C79.7297 40.8747 80.967 41.28 82.503 41.28C83.527 41.28 84.551 41.088 85.575 40.704C86.599 40.32 87.4523 39.8293 88.135 39.232ZM116.099 48L104.195 14.4H114.755L122.115 38.784L129.475 14.4H139.075L127.235 48H116.099ZM159.022 48.64C155.224 48.64 151.982 47.8507 149.294 46.272C146.606 44.6933 144.536 42.6027 143.086 40C141.678 37.3973 140.974 34.5813 140.974 31.552C140.974 28.3093 141.678 25.344 143.086 22.656C144.494 19.968 146.542 17.8133 149.23 16.192C151.918 14.5707 155.182 13.76 159.022 13.76C162.819 13.76 166.062 14.5707 168.75 16.192C171.438 17.8133 173.464 19.9467 174.83 22.592C176.238 25.2373 176.942 28.0747 176.942 31.104C176.942 32.3413 176.856 33.4293 176.686 34.368H151.854C152.024 36.6293 152.835 38.3573 154.286 39.552C155.779 40.704 157.464 41.28 159.342 41.28C160.835 41.28 162.264 40.9173 163.63 40.192C164.995 39.4667 165.934 38.4853 166.446 37.248L175.15 39.68C173.827 42.3253 171.758 44.48 168.942 46.144C166.168 47.808 162.862 48.64 159.022 48.64ZM151.598 28.096H166.19C165.976 25.9627 165.187 24.2773 163.822 23.04C162.499 21.76 160.856 21.12 158.894 21.12C156.931 21.12 155.267 21.76 153.902 23.04C152.579 24.32 151.811 26.0053 151.598 28.096ZM181.455 1.28H191.695V36.032C191.695 37.44 191.951 38.4427 192.463 39.04C192.975 39.6373 193.7 39.936 194.639 39.936C195.279 39.936 195.919 39.8507 196.559 39.68C197.241 39.4667 197.839 39.232 198.351 38.976L199.695 46.656C198.415 47.2533 196.943 47.7227 195.279 48.064C193.615 48.4053 192.057 48.576 190.607 48.576C187.705 48.576 185.444 47.808 183.823 46.272C182.244 44.736 181.455 42.5173 181.455 39.616V1.28ZM219.02 48.64C215.18 48.64 211.916 47.8293 209.228 46.208C206.583 44.5867 204.556 42.4533 203.148 39.808C201.74 37.1627 201.036 34.304 201.036 31.232C201.036 28.1173 201.74 25.2373 203.148 22.592C204.556 19.9467 206.604 17.8133 209.292 16.192C211.98 14.5707 215.223 13.76 219.02 13.76C222.817 13.76 226.06 14.5707 228.748 16.192C231.436 17.8133 233.484 19.9467 234.892 22.592C236.3 25.2373 237.004 28.1173 237.004 31.232C237.004 34.304 236.3 37.1627 234.892 39.808C233.484 42.4533 231.436 44.5867 228.748 46.208C226.06 47.8293 222.817 48.64 219.02 48.64ZM211.532 31.232C211.532 33.8347 212.236 35.9467 213.644 37.568C215.095 39.1893 216.887 40 219.02 40C221.111 40 222.86 39.1893 224.268 37.568C225.719 35.9467 226.444 33.8347 226.444 31.232C226.444 28.6293 225.719 26.5173 224.268 24.896C222.86 23.2747 221.111 22.464 219.02 22.464C216.887 22.464 215.095 23.2747 213.644 24.896C212.236 26.5173 211.532 28.6293 211.532 31.232ZM295.203 48H284.963V29.12C284.963 26.944 284.557 25.344 283.747 24.32C282.936 23.296 281.891 22.784 280.611 22.784C279.245 22.784 277.901 23.3387 276.579 24.448C275.256 25.5573 274.317 26.9867 273.763 28.736V48H263.523V29.12C263.523 26.9013 263.117 25.3013 262.307 24.32C261.496 23.296 260.451 22.784 259.171 22.784C257.805 22.784 256.461 23.3387 255.139 24.448C253.859 25.5573 252.92 26.9867 252.323 28.736V48H242.083V14.4H251.299V20.032C252.536 18.0267 254.221 16.4907 256.355 15.424C258.488 14.3147 260.941 13.76 263.715 13.76C266.488 13.76 268.621 14.4213 270.115 15.744C271.608 17.024 272.568 18.5387 272.995 20.288C274.275 18.24 275.96 16.64 278.051 15.488C280.184 14.336 282.573 13.76 285.219 13.76C287.352 13.76 289.059 14.1653 290.339 14.976C291.661 15.744 292.664 16.768 293.347 18.048C294.072 19.328 294.563 20.7147 294.819 22.208C295.075 23.6587 295.203 25.088 295.203 26.496V48ZM299.783 37.952C299.783 35.7333 300.402 33.792 301.639 32.128C302.876 30.464 304.583 29.1627 306.759 28.224C308.935 27.2427 311.431 26.752 314.247 26.752C315.612 26.752 316.956 26.88 318.279 27.136C319.602 27.3493 320.754 27.6693 321.735 28.096V26.624C321.735 22.8267 319.495 20.928 315.015 20.928C313.138 20.928 311.367 21.248 309.703 21.888C308.082 22.528 306.354 23.4453 304.519 24.64L301.447 18.112C305.884 15.2107 310.748 13.76 316.039 13.76C321.074 13.76 324.978 14.976 327.751 17.408C330.567 19.7973 331.975 23.2747 331.975 27.84V36.608C331.975 37.632 332.124 38.3573 332.423 38.784C332.764 39.2107 333.34 39.4453 334.151 39.488V48C333.255 48.1707 332.444 48.2987 331.719 48.384C330.994 48.4693 330.354 48.512 329.799 48.512C327.879 48.512 326.407 48.128 325.383 47.36C324.402 46.592 323.783 45.5467 323.527 44.224L323.335 42.752C321.842 44.672 320.05 46.144 317.959 47.168C315.868 48.1493 313.714 48.64 311.495 48.64C309.276 48.64 307.271 48.1707 305.479 47.232C303.73 46.2933 302.343 45.0347 301.319 43.456C300.295 41.8347 299.783 40 299.783 37.952ZM320.135 39.232C321.202 38.3787 321.735 37.504 321.735 36.608V33.6C320.839 33.2587 319.858 33.0027 318.791 32.832C317.767 32.6187 316.828 32.512 315.975 32.512C314.055 32.512 312.476 32.9387 311.239 33.792C310.044 34.6453 309.447 35.7333 309.447 37.056C309.447 38.208 309.895 39.2107 310.791 40.064C311.73 40.8747 312.967 41.28 314.503 41.28C315.527 41.28 316.551 41.088 317.575 40.704C318.599 40.32 319.452 39.8293 320.135 39.232Z" fill="#14505C"/>
<path d="M39.976 11.776V12.776H40.976V11.776H39.976ZM26.152 11.776V10.776H25.152V11.776H26.152ZM26.152 48V49H27.152V48H26.152ZM15.656 48H14.656V49H15.656V48ZM15.656 11.776H16.656V10.776H15.656V11.776ZM1.768 11.776H0.768V12.776H1.768V11.776ZM1.768 2.56V1.56H0.768V2.56H1.768ZM39.976 2.56H40.976V1.56H39.976V2.56ZM39.976 10.776H26.152V12.776H39.976V10.776ZM25.152 11.776V48H27.152V11.776H25.152ZM26.152 47H15.656V49H26.152V47ZM16.656 48V11.776H14.656V48H16.656ZM15.656 10.776H1.768V12.776H15.656V10.776ZM2.768 11.776V2.56H0.768V11.776H2.768ZM1.768 3.56H39.976V1.56H1.768V3.56ZM38.976 2.56V11.776H40.976V2.56H38.976ZM65.582 23.168L65.5992 24.1679L66.582 24.1509V23.168H65.582ZM58.862 24.384L59.2196 25.3179L59.2196 25.3179L58.862 24.384ZM54.51 27.84L53.6462 27.3361L53.51 27.5696V27.84H54.51ZM54.51 48V49H55.51V48H54.51ZM44.27 48H43.27V49H44.27V48ZM44.27 14.4V13.4H43.27V14.4H44.27ZM53.678 14.4H54.678V13.4H53.678V14.4ZM53.678 21.184H52.678L54.569 21.6379L53.678 21.184ZM58.158 15.872L57.5858 15.0519L57.5858 15.0519L58.158 15.872ZM63.918 13.888V12.888H63.9074L63.8967 12.8882L63.918 13.888ZM65.582 13.952H66.582V13.1049L65.7464 12.9656L65.582 13.952ZM65.5648 22.1681C62.9911 22.2125 60.6337 22.6347 58.5044 23.4501L59.2196 25.3179C61.101 24.5973 63.2235 24.2088 65.5992 24.1679L65.5648 22.1681ZM58.5044 23.4501C56.332 24.2821 54.6795 25.5648 53.6462 27.3361L55.3738 28.3439C56.1325 27.0432 57.3814 26.0219 59.2196 25.3179L58.5044 23.4501ZM53.51 27.84V48H55.51V27.84H53.51ZM54.51 47H44.27V49H54.51V47ZM45.27 48V14.4H43.27V48H45.27ZM44.27 15.4H53.678V13.4H44.27V15.4ZM52.678 14.4V21.184H54.678V14.4H52.678ZM54.569 21.6379C55.6566 19.5031 57.0475 17.8661 58.7302 16.6921L57.5858 15.0519C55.5992 16.4379 54.0034 18.3422 52.787 20.7301L54.569 21.6379ZM58.7302 16.6921C60.4223 15.5116 62.1536 14.9258 63.9393 14.8878L63.8967 12.8882C61.6717 12.9356 59.563 13.6724 57.5858 15.0519L58.7302 16.6921ZM63.918 14.888C64.791 14.888 65.2586 14.9119 65.4176 14.9384L65.7464 12.9656C65.3934 12.9068 64.7517 12.888 63.918 12.888V14.888ZM64.582 13.952V23.168H66.582V13.952H64.582ZM69.639 32.128L68.8365 31.5313L68.8365 31.5313L69.639 32.128ZM74.759 28.224L75.1551 29.1422L75.1626 29.139L75.1701 29.1356L74.759 28.224ZM86.279 27.136L86.089 28.1178L86.1043 28.1208L86.1198 28.1232L86.279 27.136ZM89.735 28.096L89.3363 29.0131L90.735 29.6212V28.096H89.735ZM77.703 21.888L77.344 20.9546L77.3358 20.9578L77.703 21.888ZM72.519 24.64L71.6142 25.0658L72.1029 26.1043L73.0647 25.478L72.519 24.64ZM69.447 18.112L68.8998 17.275L68.1719 17.7509L68.5422 18.5378L69.447 18.112ZM95.751 17.408L95.0917 18.1599L95.0978 18.1652L95.104 18.1705L95.751 17.408ZM100.423 38.784L99.6038 39.3575L99.6221 39.3837L99.6421 39.4087L100.423 38.784ZM102.151 39.488H103.151V38.5392L102.204 38.4894L102.151 39.488ZM102.151 48L102.338 48.9823L103.151 48.8275V48H102.151ZM99.719 48.384L99.6022 47.3908L99.719 48.384ZM93.383 47.36L92.7667 48.1475L92.7748 48.1538L92.783 48.16L93.383 47.36ZM91.527 44.224L90.5354 44.3533L90.5394 44.3838L90.5452 44.414L91.527 44.224ZM91.335 42.752L92.3266 42.6227L92.0167 40.2467L90.5456 42.1381L91.335 42.752ZM85.959 47.168L86.3839 48.0732L86.3914 48.0697L86.3989 48.0661L85.959 47.168ZM73.479 47.232L73.0062 48.1132L73.015 48.1178L73.479 47.232ZM69.319 43.456L68.4734 43.99L68.48 44.0002L69.319 43.456ZM88.135 39.232L87.5103 38.4511L87.4931 38.4649L87.4765 38.4794L88.135 39.232ZM89.735 33.6H90.735V32.9108L90.091 32.6655L89.735 33.6ZM86.791 32.832L86.587 33.811L86.6099 33.8157L86.633 33.8194L86.791 32.832ZM79.239 33.792L78.6713 32.9688L78.6645 32.9735L78.6578 32.9783L79.239 33.792ZM78.791 40.064L78.1013 40.7881L78.119 40.8049L78.1374 40.8208L78.791 40.064ZM85.575 40.704L85.2239 39.7677L85.2239 39.7677L85.575 40.704ZM68.783 37.952C68.783 35.9323 69.3416 34.2038 70.4415 32.7247L68.8365 31.5313C67.4617 33.3802 66.783 35.5343 66.783 37.952H68.783ZM70.4415 32.7247C71.5597 31.2209 73.117 30.0214 75.1551 29.1422L74.3629 27.3058C72.049 28.304 70.193 29.7071 68.8365 31.5313L70.4415 32.7247ZM75.1701 29.1356C77.1958 28.2221 79.5476 27.752 82.247 27.752V25.752C79.3144 25.752 76.6742 26.2633 74.3479 27.3124L75.1701 29.1356ZM82.247 27.752C83.5494 27.752 84.8298 27.8741 86.089 28.1178L86.469 26.1542C85.0829 25.8859 83.6752 25.752 82.247 25.752V27.752ZM86.1198 28.1232C87.3797 28.3265 88.4479 28.6268 89.3363 29.0131L90.1337 27.1789C89.0594 26.7118 87.8236 26.3722 86.4382 26.1488L86.1198 28.1232ZM90.735 28.096V26.624H88.735V28.096H90.735ZM90.735 26.624C90.735 24.5239 90.1078 22.7811 88.7016 21.5892C87.327 20.4241 85.3725 19.928 83.015 19.928V21.928C85.1375 21.928 86.543 22.3813 87.4084 23.1148C88.2422 23.8216 88.735 24.9267 88.735 26.624H90.735ZM83.015 19.928C81.0215 19.928 79.1286 20.2683 77.344 20.9547L78.062 22.8213C79.6054 22.2277 81.2538 21.928 83.015 21.928V19.928ZM77.3358 20.9578C75.6386 21.6278 73.8507 22.5796 71.9733 23.802L73.0647 25.478C74.8567 24.3111 76.5247 23.4282 78.0702 22.8182L77.3358 20.9578ZM73.4238 24.2142L70.3518 17.6862L68.5422 18.5378L71.6142 25.0658L73.4238 24.2142ZM69.9942 18.949C74.2692 16.1538 78.9431 14.76 84.039 14.76V12.76C78.5535 12.76 73.4994 14.2676 68.8998 17.275L69.9942 18.949ZM84.039 14.76C88.92 14.76 92.5581 15.9381 95.0917 18.1599L96.4103 16.6561C93.3973 14.0139 89.2273 12.76 84.039 12.76V14.76ZM95.104 18.1705C97.6443 20.3259 98.975 23.4928 98.975 27.84H100.975C100.975 23.0565 99.4897 19.2688 96.398 16.6455L95.104 18.1705ZM98.975 27.84V36.608H100.975V27.84H98.975ZM98.975 36.608C98.975 37.6712 99.1189 38.6647 99.6038 39.3575L101.242 38.2105C101.13 38.0499 100.975 37.5928 100.975 36.608H98.975ZM99.6421 39.4087C100.234 40.1482 101.143 40.4363 102.098 40.4866L102.204 38.4894C101.538 38.4544 101.295 38.2732 101.204 38.1593L99.6421 39.4087ZM101.151 39.488V48H103.151V39.488H101.151ZM101.964 47.0177C101.086 47.1849 100.299 47.3089 99.6022 47.3908L99.8358 49.3772C100.59 49.2885 101.424 49.1564 102.338 48.9823L101.964 47.0177ZM99.6022 47.3908C98.9042 47.473 98.3046 47.512 97.799 47.512V49.512C98.4027 49.512 99.0831 49.4657 99.8358 49.3772L99.6022 47.3908ZM97.799 47.512C95.9925 47.512 94.7666 47.1477 93.983 46.56L92.783 48.16C94.0474 49.1083 95.7655 49.512 97.799 49.512V47.512ZM93.9993 46.5725C93.2239 45.9656 92.723 45.1407 92.5088 44.034L90.5452 44.414C90.843 45.9526 91.5795 47.2184 92.7667 48.1475L93.9993 46.5725ZM92.5186 44.0947L92.3266 42.6227L90.3434 42.8813L90.5354 44.3533L92.5186 44.0947ZM90.5456 42.1381C89.1414 43.9435 87.4671 45.3159 85.5191 46.2699L86.3989 48.0661C88.6323 46.9721 90.542 45.4005 92.1244 43.3659L90.5456 42.1381ZM85.5341 46.2628C83.5708 47.1843 81.5607 47.64 79.495 47.64V49.64C81.8666 49.64 84.1659 49.1144 86.3839 48.0732L85.5341 46.2628ZM79.495 47.64C77.422 47.64 75.5783 47.2028 73.943 46.3462L73.015 48.1178C74.9637 49.1386 77.1307 49.64 79.495 49.64V47.64ZM73.9518 46.3508C72.3425 45.4873 71.0852 44.3413 70.158 42.9118L68.48 44.0002C69.6008 45.7281 71.1168 47.0994 73.0062 48.1132L73.9518 46.3508ZM70.1645 42.922C69.2484 41.4715 68.783 39.8244 68.783 37.952H66.783C66.783 40.1756 67.3416 42.1979 68.4735 43.99L70.1645 42.922ZM88.7597 40.0129C89.9369 39.0711 90.735 37.9396 90.735 36.608H88.735C88.735 37.0684 88.4664 37.6862 87.5103 38.4511L88.7597 40.0129ZM90.735 36.608V33.6H88.735V36.608H90.735ZM90.091 32.6655C89.1235 32.297 88.0749 32.0247 86.949 31.8446L86.633 33.8194C87.6404 33.9806 88.5545 34.2204 89.379 34.5345L90.091 32.6655ZM86.995 31.853C85.9183 31.6287 84.9102 31.512 83.975 31.512V33.512C84.7465 33.512 85.6157 33.6086 86.587 33.811L86.995 31.853ZM83.975 31.512C81.9084 31.512 80.1165 31.9721 78.6713 32.9688L79.8067 34.6152C80.8362 33.9052 82.2016 33.512 83.975 33.512V31.512ZM78.6578 32.9783C77.2339 33.9953 76.447 35.3712 76.447 37.056H78.447C78.447 36.0954 78.8548 35.2953 79.8202 34.6057L78.6578 32.9783ZM76.447 37.056C76.447 38.5035 77.0235 39.7616 78.1013 40.7881L79.4807 39.3399C78.7665 38.6597 78.447 37.9125 78.447 37.056H76.447ZM78.1374 40.8208C79.298 41.8232 80.7863 42.28 82.503 42.28V40.28C81.1477 40.28 80.1613 39.9261 79.4446 39.3072L78.1374 40.8208ZM82.503 42.28C83.6549 42.28 84.7975 42.0635 85.9261 41.6403L85.2239 39.7677C84.3045 40.1125 83.3991 40.28 82.503 40.28V42.28ZM85.9261 41.6403C87.0403 41.2225 88.0038 40.6756 88.7935 39.9846L87.4765 38.4794C86.9009 38.9831 86.1577 39.4175 85.2239 39.7677L85.9261 41.6403ZM116.099 48L115.156 48.3339L115.392 49H116.099V48ZM104.195 14.4V13.4H102.78L103.252 14.7339L104.195 14.4ZM114.755 14.4L115.712 14.111L115.498 13.4H114.755V14.4ZM122.115 38.784L121.158 39.073L122.115 42.2447L123.072 39.073L122.115 38.784ZM129.475 14.4V13.4H128.732L128.518 14.111L129.475 14.4ZM139.075 14.4L140.018 14.7323L140.488 13.4H139.075V14.4ZM127.235 48V49H127.943L128.178 48.3324L127.235 48ZM117.042 47.6661L105.138 14.0661L103.252 14.7339L115.156 48.3339L117.042 47.6661ZM104.195 15.4H114.755V13.4H104.195V15.4ZM113.798 14.689L121.158 39.073L123.072 38.495L115.712 14.111L113.798 14.689ZM123.072 39.073L130.432 14.689L128.518 14.111L121.158 38.495L123.072 39.073ZM129.475 15.4H139.075V13.4H129.475V15.4ZM138.132 14.0676L126.292 47.6676L128.178 48.3324L140.018 14.7323L138.132 14.0676ZM127.235 47H116.099V49H127.235V47ZM149.294 46.272L149.8 45.4097L149.8 45.4097L149.294 46.272ZM143.086 40L142.206 40.4759L142.212 40.4869L143.086 40ZM143.086 22.656L142.2 22.192L142.2 22.192L143.086 22.656ZM149.23 16.192L149.746 17.0483L149.746 17.0483L149.23 16.192ZM168.75 16.192L168.233 17.0483L168.233 17.0483L168.75 16.192ZM174.83 22.592L173.941 23.0507L173.947 23.0618L174.83 22.592ZM176.686 34.368V35.368H177.52L177.669 34.5469L176.686 34.368ZM151.854 34.368V33.368H150.775L150.856 34.4433L151.854 34.368ZM154.286 39.552L153.65 40.3239L153.662 40.3341L153.675 40.3438L154.286 39.552ZM166.446 37.248L166.715 36.2849L165.861 36.0463L165.521 36.8656L166.446 37.248ZM175.15 39.68L176.044 40.1272L176.586 39.0431L175.419 38.7169L175.15 39.68ZM168.942 46.144L168.433 45.2831L168.427 45.2865L168.942 46.144ZM151.598 28.096L150.603 27.9945L150.49 29.096H151.598V28.096ZM166.19 28.096V29.096H167.294L167.185 27.9965L166.19 28.096ZM163.822 23.04L163.126 23.7586L163.138 23.77L163.15 23.781L163.822 23.04ZM153.902 23.04L153.218 22.3105L153.212 22.3159L153.206 22.3214L153.902 23.04ZM159.022 47.64C155.363 47.64 152.304 46.8804 149.8 45.4097L148.787 47.1343C151.659 48.8209 155.085 49.64 159.022 49.64V47.64ZM149.8 45.4097C147.258 43.9169 145.319 41.9529 143.959 39.5131L142.212 40.4869C143.754 43.2525 145.953 45.4698 148.787 47.1343L149.8 45.4097ZM143.965 39.5242C142.638 37.0712 141.974 34.4193 141.974 31.552H139.974C139.974 34.7434 140.717 37.7234 142.206 40.4758L143.965 39.5242ZM141.974 31.552C141.974 28.4596 142.643 25.6551 143.971 23.12L142.2 22.192C140.712 25.0329 139.974 28.1591 139.974 31.552H141.974ZM143.971 23.12C145.291 20.5999 147.209 18.5785 149.746 17.0483L148.713 15.3357C145.874 17.0481 143.696 19.3361 142.2 22.192L143.971 23.12ZM149.746 17.0483C152.247 15.5399 155.323 14.76 159.022 14.76V12.76C155.04 12.76 151.588 13.6014 148.713 15.3357L149.746 17.0483ZM159.022 14.76C162.675 14.76 165.731 15.5389 168.233 17.0483L169.266 15.3357C166.392 13.6024 162.963 12.76 159.022 12.76V14.76ZM168.233 17.0483C170.772 18.5795 172.665 20.5789 173.941 23.0506L175.718 22.1334C174.263 19.3145 172.103 17.0472 169.266 15.3357L168.233 17.0483ZM173.947 23.0618C175.277 25.5609 175.942 28.2367 175.942 31.104H177.942C177.942 27.9127 177.198 24.9138 175.712 22.1222L173.947 23.0618ZM175.942 31.104C175.942 32.298 175.859 33.3238 175.702 34.1891L177.669 34.5469C177.853 33.5348 177.942 32.3847 177.942 31.104H175.942ZM176.686 33.368H151.854V35.368H176.686V33.368ZM150.856 34.4433C151.043 36.9159 151.946 38.9209 153.65 40.3239L154.921 38.7801C153.724 37.7937 153.005 36.3427 152.851 34.2927L150.856 34.4433ZM153.675 40.3438C155.342 41.6301 157.242 42.28 159.342 42.28V40.28C157.686 40.28 156.216 39.7779 154.896 38.7602L153.675 40.3438ZM159.342 42.28C161.004 42.28 162.594 41.8744 164.099 41.0751L163.16 39.3089C161.934 39.9603 160.665 40.28 159.342 40.28V42.28ZM164.099 41.0751C165.636 40.2585 166.755 39.1149 167.37 37.6304L165.521 36.8656C165.112 37.8557 164.354 38.6748 163.16 39.3089L164.099 41.0751ZM166.176 38.2111L174.88 40.6431L175.419 38.7169L166.715 36.2849L166.176 38.2111ZM174.255 39.2328C173.027 41.688 171.101 43.7062 168.433 45.2831L169.45 47.0049C172.414 45.2538 174.626 42.9627 176.044 40.1272L174.255 39.2328ZM168.427 45.2865C165.836 46.8411 162.714 47.64 159.022 47.64V49.64C163.009 49.64 166.5 48.7749 169.456 47.0015L168.427 45.2865ZM151.598 29.096H166.19V27.096H151.598V29.096ZM167.185 27.9965C166.951 25.6596 166.072 23.7296 164.493 22.299L163.15 23.781C164.302 24.8251 165.001 26.2658 165.194 28.1955L167.185 27.9965ZM164.517 22.3214C162.995 20.8481 161.097 20.12 158.894 20.12V22.12C160.616 22.12 162.003 22.6719 163.126 23.7586L164.517 22.3214ZM158.894 20.12C156.69 20.12 154.778 20.8476 153.218 22.3105L154.585 23.7695C155.756 22.6724 157.171 22.12 158.894 22.12V20.12ZM153.206 22.3214C151.69 23.7884 150.836 25.7045 150.603 27.9945L152.592 28.1975C152.785 26.3062 153.468 24.8516 154.597 23.7586L153.206 22.3214ZM181.455 1.28V0.279999H180.455V1.28H181.455ZM191.695 1.28H192.695V0.279999H191.695V1.28ZM192.463 39.04L191.703 39.6908L191.703 39.6908L192.463 39.04ZM196.559 39.68L196.816 40.6462L196.837 40.6408L196.857 40.6345L196.559 39.68ZM198.351 38.976L199.336 38.8036L199.104 37.4812L197.903 38.0816L198.351 38.976ZM199.695 46.656L200.117 47.5622L200.812 47.2382L200.68 46.4836L199.695 46.656ZM195.279 48.064L195.479 49.0436L195.479 49.0436L195.279 48.064ZM183.823 46.272L183.125 46.9888L183.135 46.998L183.823 46.272ZM181.455 2.28H191.695V0.279999H181.455V2.28ZM190.695 1.28V36.032H192.695V1.28H190.695ZM190.695 36.032C190.695 37.5098 190.953 38.8157 191.703 39.6908L193.222 38.3892C192.948 38.0697 192.695 37.3702 192.695 36.032H190.695ZM191.703 39.6908C192.442 40.5529 193.47 40.936 194.639 40.936V38.936C193.93 38.936 193.507 38.7218 193.222 38.3892L191.703 39.6908ZM194.639 40.936C195.368 40.936 196.095 40.8385 196.816 40.6462L196.301 38.7138C195.742 38.8628 195.189 38.936 194.639 38.936V40.936ZM196.857 40.6345C197.579 40.4089 198.228 40.1555 198.798 39.8704L197.903 38.0816C197.449 38.3085 196.904 38.5244 196.26 38.7255L196.857 40.6345ZM197.365 39.1484L198.709 46.8284L200.68 46.4836L199.336 38.8036L197.365 39.1484ZM199.272 45.7498C198.075 46.3082 196.68 46.7557 195.078 47.0844L195.479 49.0436C197.205 48.6896 198.754 48.1984 200.117 47.5622L199.272 45.7498ZM195.078 47.0844C193.469 47.4144 191.979 47.576 190.607 47.576V49.576C192.135 49.576 193.76 49.3963 195.479 49.0436L195.078 47.0844ZM190.607 47.576C187.882 47.576 185.895 46.8583 184.51 45.546L183.135 46.998C184.992 48.7577 187.528 49.576 190.607 49.576V47.576ZM184.52 45.5553C183.19 44.2618 182.455 42.3366 182.455 39.616H180.455C180.455 42.6981 181.297 45.2102 183.125 46.9887L184.52 45.5553ZM182.455 39.616V1.28H180.455V39.616H182.455ZM209.228 46.208L208.705 47.0606L208.712 47.0643L209.228 46.208ZM203.148 39.808L204.031 39.3382L204.031 39.3382L203.148 39.808ZM203.148 22.592L204.031 23.0618L204.031 23.0618L203.148 22.592ZM209.292 16.192L209.808 17.0483L209.808 17.0483L209.292 16.192ZM228.748 16.192L228.232 17.0483L228.232 17.0483L228.748 16.192ZM228.748 46.208L228.232 45.3517L228.232 45.3517L228.748 46.208ZM213.644 37.568L212.889 38.2237L212.894 38.2293L212.899 38.2348L213.644 37.568ZM224.268 37.568L223.523 36.9012L223.518 36.9067L223.513 36.9123L224.268 37.568ZM224.268 24.896L223.513 25.5517L223.518 25.5573L223.523 25.5628L224.268 24.896ZM213.644 24.896L212.899 24.2292L212.894 24.2347L212.889 24.2403L213.644 24.896ZM219.02 47.64C215.321 47.64 212.245 46.8601 209.744 45.3517L208.712 47.0643C211.587 48.7986 215.039 49.64 219.02 49.64V47.64ZM209.751 45.3554C207.252 43.8238 205.352 41.8203 204.031 39.3382L202.265 40.2778C203.76 43.0863 205.914 45.3495 208.705 47.0606L209.751 45.3554ZM204.031 39.3382C202.702 36.8412 202.036 34.1444 202.036 31.232H200.036C200.036 34.4636 200.778 37.4841 202.265 40.2778L204.031 39.3382ZM202.036 31.232C202.036 28.2745 202.703 25.5568 204.031 23.0618L202.265 22.1221C200.777 24.9179 200.036 27.9602 200.036 31.232H202.036ZM204.031 23.0618C205.35 20.5838 207.268 18.5809 209.808 17.0483L208.776 15.3357C205.94 17.0458 203.762 19.3095 202.265 22.1222L204.031 23.0618ZM209.808 17.0483C212.311 15.5389 215.366 14.76 219.02 14.76V12.76C215.079 12.76 211.649 13.6024 208.776 15.3357L209.808 17.0483ZM219.02 14.76C222.674 14.76 225.729 15.5389 228.232 17.0483L229.264 15.3357C226.391 13.6024 222.961 12.76 219.02 12.76V14.76ZM228.232 17.0483C230.772 18.5809 232.69 20.5838 234.009 23.0618L235.775 22.1222C234.278 19.3095 232.1 17.0458 229.264 15.3357L228.232 17.0483ZM234.009 23.0618C235.337 25.5568 236.004 28.2745 236.004 31.232H238.004C238.004 27.9602 237.263 24.9179 235.775 22.1222L234.009 23.0618ZM236.004 31.232C236.004 34.1444 235.338 36.8412 234.009 39.3382L235.775 40.2778C237.262 37.4841 238.004 34.4636 238.004 31.232H236.004ZM234.009 39.3382C232.69 41.8162 230.772 43.8191 228.232 45.3517L229.264 47.0643C232.1 45.3542 234.278 43.0905 235.775 40.2778L234.009 39.3382ZM228.232 45.3517C225.729 46.8611 222.674 47.64 219.02 47.64V49.64C222.961 49.64 226.391 48.7976 229.264 47.0643L228.232 45.3517ZM210.532 31.232C210.532 34.0222 211.291 36.3838 212.889 38.2237L214.399 36.9123C213.181 35.5095 212.532 33.6471 212.532 31.232H210.532ZM212.899 38.2348C214.535 40.0634 216.596 41 219.02 41V39C217.178 39 215.654 38.3153 214.389 36.9012L212.899 38.2348ZM219.02 41C221.409 41 223.431 40.0569 225.023 38.2237L223.513 36.9123C222.289 38.3217 220.812 39 219.02 39V41ZM225.013 38.2348C226.659 36.3954 227.444 34.0298 227.444 31.232H225.444C225.444 33.6395 224.778 35.4979 223.523 36.9012L225.013 38.2348ZM227.444 31.232C227.444 28.4342 226.659 26.0686 225.013 24.2292L223.523 25.5628C224.778 26.9661 225.444 28.8245 225.444 31.232H227.444ZM225.023 24.2403C223.431 22.4071 221.409 21.464 219.02 21.464V23.464C220.812 23.464 222.289 24.1423 223.513 25.5517L225.023 24.2403ZM219.02 21.464C216.596 21.464 214.535 22.4006 212.899 24.2292L214.389 25.5628C215.654 24.1487 217.178 23.464 219.02 23.464V21.464ZM212.889 24.2403C211.291 26.0802 210.532 28.4418 210.532 31.232H212.532C212.532 28.8169 213.181 26.9545 214.399 25.5517L212.889 24.2403ZM295.203 48V49H296.203V48H295.203ZM284.963 48H283.963V49H284.963V48ZM283.747 24.32L282.962 24.9407L282.962 24.9407L283.747 24.32ZM276.579 24.448L277.221 25.2142L277.221 25.2142L276.579 24.448ZM273.763 28.736L272.809 28.4338L272.763 28.5813V28.736H273.763ZM273.763 48V49H274.763V48H273.763ZM263.523 48H262.523V49H263.523V48ZM262.307 24.32L261.522 24.9407L261.529 24.9489L261.536 24.9569L262.307 24.32ZM255.139 24.448L254.496 23.6818L254.49 23.687L254.484 23.6923L255.139 24.448ZM252.323 28.736L251.376 28.4129L251.323 28.57V28.736H252.323ZM252.323 48V49H253.323V48H252.323ZM242.083 48H241.083V49H242.083V48ZM242.083 14.4V13.4H241.083V14.4H242.083ZM251.299 14.4H252.299V13.4H251.299V14.4ZM251.299 20.032H250.299V23.5571L252.15 20.5571L251.299 20.032ZM256.355 15.424L256.802 16.3184L256.809 16.3149L256.816 16.3112L256.355 15.424ZM270.115 15.744L269.451 16.4926L269.458 16.498L269.464 16.5033L270.115 15.744ZM272.995 20.288L272.023 20.525L272.585 22.8298L273.843 20.818L272.995 20.288ZM278.051 15.488L277.575 14.6081L277.568 14.6122L278.051 15.488ZM290.339 14.976L289.803 15.8208L289.82 15.8311L289.836 15.8408L290.339 14.976ZM293.347 18.048L292.464 18.5186L292.47 18.5299L292.476 18.541L293.347 18.048ZM294.819 22.208L293.833 22.377L293.834 22.3818L294.819 22.208ZM295.203 47H284.963V49H295.203V47ZM285.963 48V29.12H283.963V48H285.963ZM285.963 29.12C285.963 26.8562 285.547 24.9839 284.531 23.6993L282.962 24.9407C283.567 25.7041 283.963 27.0318 283.963 29.12H285.963ZM284.531 23.6993C283.535 22.4414 282.203 21.784 280.611 21.784V23.784C281.578 23.784 282.337 24.1506 282.962 24.9407L284.531 23.6993ZM280.611 21.784C278.953 21.784 277.39 22.4624 275.936 23.6818L277.221 25.2142C278.413 24.2149 279.537 23.784 280.611 23.784V21.784ZM275.936 23.6818C274.458 24.921 273.418 26.5154 272.809 28.4338L274.716 29.0382C275.217 27.458 276.053 26.1937 277.221 25.2142L275.936 23.6818ZM272.763 28.736V48H274.763V28.736H272.763ZM273.763 47H263.523V49H273.763V47ZM264.523 48V29.12H262.523V48H264.523ZM264.523 29.12C264.523 26.8248 264.112 24.9353 263.077 23.6831L261.536 24.9569C262.122 25.6674 262.523 26.9778 262.523 29.12H264.523ZM263.091 23.6993C262.095 22.4414 260.763 21.784 259.171 21.784V23.784C260.138 23.784 260.897 24.1506 261.522 24.9407L263.091 23.6993ZM259.171 21.784C257.513 21.784 255.95 22.4624 254.496 23.6818L255.781 25.2142C256.973 24.2149 258.097 23.784 259.171 23.784V21.784ZM254.484 23.6923C253.058 24.9279 252.025 26.5119 251.376 28.4129L253.269 29.0591C253.814 27.4615 254.659 26.1867 255.793 25.2037L254.484 23.6923ZM251.323 28.736V48H253.323V28.736H251.323ZM252.323 47H242.083V49H252.323V47ZM243.083 48V14.4H241.083V48H243.083ZM242.083 15.4H251.299V13.4H242.083V15.4ZM250.299 14.4V20.032H252.299V14.4H250.299ZM252.15 20.5571C253.288 18.7121 254.833 17.303 256.802 16.3184L255.907 14.5296C253.61 15.6783 251.784 17.3413 250.447 19.5069L252.15 20.5571ZM256.816 16.3112C258.786 15.2866 261.077 14.76 263.715 14.76V12.76C260.805 12.76 258.189 13.3427 255.893 14.5368L256.816 16.3112ZM263.715 14.76C266.339 14.76 268.202 15.3856 269.451 16.4926L270.778 14.9954C269.041 13.4571 266.637 12.76 263.715 12.76V14.76ZM269.464 16.5033C270.814 17.6603 271.651 18.9979 272.023 20.525L273.966 20.051C273.485 18.0794 272.402 16.3877 270.765 14.9847L269.464 16.5033ZM273.843 20.818C275.033 18.9128 276.594 17.4326 278.533 16.3638L277.568 14.6122C275.326 15.8474 273.516 17.5672 272.147 19.758L273.843 20.818ZM278.526 16.3679C280.5 15.3018 282.724 14.76 285.219 14.76V12.76C282.423 12.76 279.868 13.3702 277.575 14.6081L278.526 16.3679ZM285.219 14.76C287.236 14.76 288.736 15.1449 289.803 15.8208L290.874 14.1312C289.381 13.1858 287.467 12.76 285.219 12.76V14.76ZM289.836 15.8408C291.007 16.5206 291.874 17.4119 292.464 18.5186L294.229 17.5774C293.454 16.1241 292.315 14.9674 290.841 14.1112L289.836 15.8408ZM292.476 18.541C293.143 19.7175 293.596 20.9941 293.833 22.377L295.804 22.039C295.529 20.4353 295.001 18.9385 294.217 17.555L292.476 18.541ZM293.834 22.3818C294.08 23.7777 294.203 25.1489 294.203 26.496H296.203C296.203 25.0271 296.069 23.5396 295.803 22.0342L293.834 22.3818ZM294.203 26.496V48H296.203V26.496H294.203ZM301.639 32.128L300.837 31.5313L300.837 31.5313L301.639 32.128ZM306.759 28.224L307.155 29.1422L307.163 29.139L307.17 29.1356L306.759 28.224ZM318.279 27.136L318.089 28.1178L318.104 28.1208L318.12 28.1232L318.279 27.136ZM321.735 28.096L321.336 29.0131L322.735 29.6212V28.096H321.735ZM309.703 21.888L309.344 20.9546L309.336 20.9578L309.703 21.888ZM304.519 24.64L303.614 25.0658L304.103 26.1043L305.065 25.478L304.519 24.64ZM301.447 18.112L300.9 17.275L300.172 17.7509L300.542 18.5378L301.447 18.112ZM327.751 17.408L327.092 18.1599L327.098 18.1652L327.104 18.1705L327.751 17.408ZM332.423 38.784L331.604 39.3575L331.622 39.3837L331.642 39.4087L332.423 38.784ZM334.151 39.488H335.151V38.5392L334.204 38.4894L334.151 39.488ZM334.151 48L334.338 48.9823L335.151 48.8275V48H334.151ZM331.719 48.384L331.602 47.3908L331.719 48.384ZM325.383 47.36L324.767 48.1475L324.775 48.1538L324.783 48.16L325.383 47.36ZM323.527 44.224L322.535 44.3533L322.539 44.3838L322.545 44.414L323.527 44.224ZM323.335 42.752L324.327 42.6227L324.017 40.2467L322.546 42.1381L323.335 42.752ZM317.959 47.168L318.384 48.0732L318.391 48.0697L318.399 48.0661L317.959 47.168ZM305.479 47.232L305.006 48.1132L305.015 48.1178L305.479 47.232ZM301.319 43.456L300.473 43.99L300.48 44.0002L301.319 43.456ZM320.135 39.232L319.51 38.4511L319.493 38.4649L319.476 38.4794L320.135 39.232ZM321.735 33.6H322.735V32.9108L322.091 32.6655L321.735 33.6ZM318.791 32.832L318.587 33.811L318.61 33.8157L318.633 33.8194L318.791 32.832ZM311.239 33.792L310.671 32.9688L310.664 32.9735L310.658 32.9783L311.239 33.792ZM310.791 40.064L310.101 40.7881L310.119 40.8049L310.137 40.8208L310.791 40.064ZM317.575 40.704L317.224 39.7677L317.224 39.7677L317.575 40.704ZM300.783 37.952C300.783 35.9323 301.342 34.2038 302.441 32.7247L300.837 31.5313C299.462 33.3802 298.783 35.5343 298.783 37.952H300.783ZM302.441 32.7247C303.56 31.2209 305.117 30.0214 307.155 29.1422L306.363 27.3058C304.049 28.304 302.193 29.7071 300.837 31.5313L302.441 32.7247ZM307.17 29.1356C309.196 28.2221 311.548 27.752 314.247 27.752V25.752C311.314 25.752 308.674 26.2633 306.348 27.3124L307.17 29.1356ZM314.247 27.752C315.549 27.752 316.83 27.8741 318.089 28.1178L318.469 26.1542C317.083 25.8859 315.675 25.752 314.247 25.752V27.752ZM318.12 28.1232C319.38 28.3265 320.448 28.6268 321.336 29.0131L322.134 27.1789C321.059 26.7118 319.824 26.3722 318.438 26.1488L318.12 28.1232ZM322.735 28.096V26.624H320.735V28.096H322.735ZM322.735 26.624C322.735 24.5239 322.108 22.7811 320.702 21.5892C319.327 20.4241 317.372 19.928 315.015 19.928V21.928C317.138 21.928 318.543 22.3813 319.408 23.1148C320.242 23.8216 320.735 24.9267 320.735 26.624H322.735ZM315.015 19.928C313.022 19.928 311.129 20.2683 309.344 20.9547L310.062 22.8213C311.605 22.2277 313.254 21.928 315.015 21.928V19.928ZM309.336 20.9578C307.639 21.6278 305.851 22.5796 303.973 23.802L305.065 25.478C306.857 24.3111 308.525 23.4282 310.07 22.8182L309.336 20.9578ZM305.424 24.2142L302.352 17.6862L300.542 18.5378L303.614 25.0658L305.424 24.2142ZM301.994 18.949C306.269 16.1538 310.943 14.76 316.039 14.76V12.76C310.554 12.76 305.499 14.2676 300.9 17.275L301.994 18.949ZM316.039 14.76C320.92 14.76 324.558 15.9381 327.092 18.1599L328.41 16.6561C325.397 14.0139 321.227 12.76 316.039 12.76V14.76ZM327.104 18.1705C329.644 20.3259 330.975 23.4928 330.975 27.84H332.975C332.975 23.0565 331.49 19.2688 328.398 16.6455L327.104 18.1705ZM330.975 27.84V36.608H332.975V27.84H330.975ZM330.975 36.608C330.975 37.6712 331.119 38.6647 331.604 39.3575L333.242 38.2105C333.13 38.0499 332.975 37.5928 332.975 36.608H330.975ZM331.642 39.4087C332.234 40.1482 333.143 40.4363 334.098 40.4866L334.204 38.4894C333.538 38.4544 333.295 38.2732 333.204 38.1593L331.642 39.4087ZM333.151 39.488V48H335.151V39.488H333.151ZM333.964 47.0177C333.086 47.1849 332.299 47.3089 331.602 47.3908L331.836 49.3772C332.59 49.2885 333.424 49.1564 334.338 48.9823L333.964 47.0177ZM331.602 47.3908C330.904 47.473 330.305 47.512 329.799 47.512V49.512C330.403 49.512 331.083 49.4657 331.836 49.3772L331.602 47.3908ZM329.799 47.512C327.993 47.512 326.767 47.1477 325.983 46.56L324.783 48.16C326.047 49.1083 327.765 49.512 329.799 49.512V47.512ZM325.999 46.5725C325.224 45.9656 324.723 45.1407 324.509 44.034L322.545 44.414C322.843 45.9526 323.579 47.2184 324.767 48.1475L325.999 46.5725ZM324.519 44.0947L324.327 42.6227L322.343 42.8813L322.535 44.3533L324.519 44.0947ZM322.546 42.1381C321.141 43.9435 319.467 45.3159 317.519 46.2699L318.399 48.0661C320.632 46.9721 322.542 45.4005 324.124 43.3659L322.546 42.1381ZM317.534 46.2628C315.571 47.1843 313.561 47.64 311.495 47.64V49.64C313.867 49.64 316.166 49.1144 318.384 48.0732L317.534 46.2628ZM311.495 47.64C309.422 47.64 307.578 47.2028 305.943 46.3462L305.015 48.1178C306.964 49.1386 309.131 49.64 311.495 49.64V47.64ZM305.952 46.3508C304.343 45.4873 303.085 44.3413 302.158 42.9118L300.48 44.0002C301.601 45.7281 303.117 47.0994 305.006 48.1132L305.952 46.3508ZM302.164 42.922C301.248 41.4715 300.783 39.8244 300.783 37.952H298.783C298.783 40.1756 299.342 42.1979 300.474 43.99L302.164 42.922ZM320.76 40.0129C321.937 39.0711 322.735 37.9396 322.735 36.608H320.735C320.735 37.0684 320.466 37.6862 319.51 38.4511L320.76 40.0129ZM322.735 36.608V33.6H320.735V36.608H322.735ZM322.091 32.6655C321.124 32.297 320.075 32.0247 318.949 31.8446L318.633 33.8194C319.64 33.9806 320.554 34.2204 321.379 34.5345L322.091 32.6655ZM318.995 31.853C317.918 31.6287 316.91 31.512 315.975 31.512V33.512C316.747 33.512 317.616 33.6086 318.587 33.811L318.995 31.853ZM315.975 31.512C313.908 31.512 312.116 31.9721 310.671 32.9688L311.807 34.6152C312.836 33.9052 314.202 33.512 315.975 33.512V31.512ZM310.658 32.9783C309.234 33.9953 308.447 35.3712 308.447 37.056H310.447C310.447 36.0954 310.855 35.2953 311.82 34.6057L310.658 32.9783ZM308.447 37.056C308.447 38.5035 309.024 39.7616 310.101 40.7881L311.481 39.3399C310.766 38.6597 310.447 37.9125 310.447 37.056H308.447ZM310.137 40.8208C311.298 41.8232 312.786 42.28 314.503 42.28V40.28C313.148 40.28 312.161 39.9261 311.445 39.3072L310.137 40.8208ZM314.503 42.28C315.655 42.28 316.798 42.0635 317.926 41.6403L317.224 39.7677C316.304 40.1125 315.399 40.28 314.503 40.28V42.28ZM317.926 41.6403C319.04 41.2225 320.004 40.6756 320.794 39.9846L319.476 38.4794C318.901 38.9831 318.158 39.4175 317.224 39.7677L317.926 41.6403Z" fill="#F7F9F9"/>
</svg>
