<svg width="329" height="48" viewBox="0 0 329 48" fill="none" xmlns="http://www.w3.org/2000/svg">
<path d="M38.976 10.776H25.152V47H14.656V10.776H0.768V1.56H38.976V10.776ZM62.5195 22.168C60.0448 22.2107 57.8048 22.616 55.7995 23.384C53.7942 24.152 52.3435 25.304 51.4475 26.84V47H41.2075V13.4H50.6155V20.184C51.7675 17.9227 53.2608 16.152 55.0955 14.872C56.9302 13.592 58.8502 12.9307 60.8555 12.888C61.7088 12.888 62.2635 12.9093 62.5195 12.952V22.168ZM64.4705 36.952C64.4705 34.7333 65.0892 32.792 66.3265 31.128C67.5638 29.464 69.2705 28.1627 71.4465 27.224C73.6225 26.2427 76.1185 25.752 78.9345 25.752C80.2998 25.752 81.6438 25.88 82.9665 26.136C84.2892 26.3493 85.4412 26.6693 86.4225 27.096V25.624C86.4225 21.8267 84.1825 19.928 79.7025 19.928C77.8252 19.928 76.0545 20.248 74.3905 20.888C72.7692 21.528 71.0412 22.4453 69.2065 23.64L66.1345 17.112C70.5718 14.2107 75.4358 12.76 80.7265 12.76C85.7612 12.76 89.6652 13.976 92.4385 16.408C95.2545 18.7973 96.6625 22.2747 96.6625 26.84V35.608C96.6625 36.632 96.8118 37.3573 97.1105 37.784C97.4518 38.2107 98.0278 38.4453 98.8385 38.488V47C97.9425 47.1707 97.1318 47.2987 96.4065 47.384C95.6812 47.4693 95.0412 47.512 94.4865 47.512C92.5665 47.512 91.0945 47.128 90.0705 46.36C89.0892 45.592 88.4705 44.5467 88.2145 43.224L88.0225 41.752C86.5292 43.672 84.7372 45.144 82.6465 46.168C80.5558 47.1493 78.4012 47.64 76.1825 47.64C73.9638 47.64 71.9585 47.1707 70.1665 46.232C68.4172 45.2933 67.0305 44.0347 66.0065 42.456C64.9825 40.8347 64.4705 39 64.4705 36.952ZM84.8225 38.232C85.8892 37.3787 86.4225 36.504 86.4225 35.608V32.6C85.5265 32.2587 84.5452 32.0027 83.4785 31.832C82.4545 31.6187 81.5158 31.512 80.6625 31.512C78.7425 31.512 77.1638 31.9387 75.9265 32.792C74.7318 33.6453 74.1345 34.7333 74.1345 36.056C74.1345 37.208 74.5825 38.2107 75.4785 39.064C76.4172 39.8747 77.6545 40.28 79.1905 40.28C80.2145 40.28 81.2385 40.088 82.2625 39.704C83.2865 39.32 84.1398 38.8293 84.8225 38.232ZM111.412 47L99.5075 13.4H110.068L117.428 37.784L124.788 13.4H134.388L122.548 47H111.412ZM153.209 47.64C149.412 47.64 146.169 46.8507 143.481 45.272C140.793 43.6933 138.724 41.6027 137.273 39C135.865 36.3973 135.161 33.5813 135.161 30.552C135.161 27.3093 135.865 24.344 137.273 21.656C138.681 18.968 140.729 16.8133 143.417 15.192C146.105 13.5707 149.369 12.76 153.209 12.76C157.006 12.76 160.249 13.5707 162.937 15.192C165.625 16.8133 167.652 18.9467 169.017 21.592C170.425 24.2373 171.129 27.0747 171.129 30.104C171.129 31.3413 171.044 32.4293 170.873 33.368H146.041C146.212 35.6293 147.022 37.3573 148.473 38.552C149.966 39.704 151.652 40.28 153.529 40.28C155.022 40.28 156.452 39.9173 157.817 39.192C159.182 38.4667 160.121 37.4853 160.633 36.248L169.337 38.68C168.014 41.3253 165.945 43.48 163.129 45.144C160.356 46.808 157.049 47.64 153.209 47.64ZM145.785 27.096H160.377C160.164 24.9627 159.374 23.2773 158.009 22.04C156.686 20.76 155.044 20.12 153.081 20.12C151.118 20.12 149.454 20.76 148.089 22.04C146.766 23.32 145.998 25.0053 145.785 27.096ZM175.642 0.279999H185.882V35.032C185.882 36.44 186.138 37.4427 186.65 38.04C187.162 38.6373 187.887 38.936 188.826 38.936C189.466 38.936 190.106 38.8507 190.746 38.68C191.429 38.4667 192.026 38.232 192.538 37.976L193.882 45.656C192.602 46.2533 191.13 46.7227 189.466 47.064C187.802 47.4053 186.245 47.576 184.794 47.576C181.893 47.576 179.631 46.808 178.01 45.272C176.431 43.736 175.642 41.5173 175.642 38.616V0.279999ZM213.208 47.64C209.368 47.64 206.104 46.8293 203.416 45.208C200.77 43.5867 198.744 41.4533 197.336 38.808C195.928 36.1627 195.224 33.304 195.224 30.232C195.224 27.1173 195.928 24.2373 197.336 21.592C198.744 18.9467 200.792 16.8133 203.48 15.192C206.168 13.5707 209.41 12.76 213.208 12.76C217.005 12.76 220.248 13.5707 222.936 15.192C225.624 16.8133 227.672 18.9467 229.08 21.592C230.488 24.2373 231.192 27.1173 231.192 30.232C231.192 33.304 230.488 36.1627 229.08 38.808C227.672 41.4533 225.624 43.5867 222.936 45.208C220.248 46.8293 217.005 47.64 213.208 47.64ZM205.72 30.232C205.72 32.8347 206.424 34.9467 207.832 36.568C209.282 38.1893 211.074 39 213.208 39C215.298 39 217.048 38.1893 218.456 36.568C219.906 34.9467 220.632 32.8347 220.632 30.232C220.632 27.6293 219.906 25.5173 218.456 23.896C217.048 22.2747 215.298 21.464 213.208 21.464C211.074 21.464 209.282 22.2747 207.832 23.896C206.424 25.5173 205.72 27.6293 205.72 30.232ZM289.39 47H279.15V28.12C279.15 25.944 278.745 24.344 277.934 23.32C277.123 22.296 276.078 21.784 274.798 21.784C273.433 21.784 272.089 22.3387 270.766 23.448C269.443 24.5573 268.505 25.9867 267.95 27.736V47H257.71V28.12C257.71 25.9013 257.305 24.3013 256.494 23.32C255.683 22.296 254.638 21.784 253.358 21.784C251.993 21.784 250.649 22.3387 249.326 23.448C248.046 24.5573 247.107 25.9867 246.51 27.736V47H236.27V13.4H245.486V19.032C246.723 17.0267 248.409 15.4907 250.542 14.424C252.675 13.3147 255.129 12.76 257.902 12.76C260.675 12.76 262.809 13.4213 264.302 14.744C265.795 16.024 266.755 17.5387 267.182 19.288C268.462 17.24 270.147 15.64 272.238 14.488C274.371 13.336 276.761 12.76 279.406 12.76C281.539 12.76 283.246 13.1653 284.526 13.976C285.849 14.744 286.851 15.768 287.534 17.048C288.259 18.328 288.75 19.7147 289.006 21.208C289.262 22.6587 289.39 24.088 289.39 25.496V47ZM293.971 36.952C293.971 34.7333 294.589 32.792 295.827 31.128C297.064 29.464 298.771 28.1627 300.947 27.224C303.123 26.2427 305.619 25.752 308.435 25.752C309.8 25.752 311.144 25.88 312.467 26.136C313.789 26.3493 314.941 26.6693 315.923 27.096V25.624C315.923 21.8267 313.683 19.928 309.203 19.928C307.325 19.928 305.555 20.248 303.891 20.888C302.269 21.528 300.541 22.4453 298.707 23.64L295.635 17.112C300.072 14.2107 304.936 12.76 310.227 12.76C315.261 12.76 319.165 13.976 321.939 16.408C324.755 18.7973 326.163 22.2747 326.163 26.84V35.608C326.163 36.632 326.312 37.3573 326.611 37.784C326.952 38.2107 327.528 38.4453 328.339 38.488V47C327.443 47.1707 326.632 47.2987 325.907 47.384C325.181 47.4693 324.541 47.512 323.987 47.512C322.067 47.512 320.595 47.128 319.571 46.36C318.589 45.592 317.971 44.5467 317.715 43.224L317.523 41.752C316.029 43.672 314.237 45.144 312.147 46.168C310.056 47.1493 307.901 47.64 305.683 47.64C303.464 47.64 301.459 47.1707 299.667 46.232C297.917 45.2933 296.531 44.0347 295.507 42.456C294.483 40.8347 293.971 39 293.971 36.952ZM314.323 38.232C315.389 37.3787 315.923 36.504 315.923 35.608V32.6C315.027 32.2587 314.045 32.0027 312.979 31.832C311.955 31.6187 311.016 31.512 310.163 31.512C308.243 31.512 306.664 31.9387 305.427 32.792C304.232 33.6453 303.635 34.7333 303.635 36.056C303.635 37.208 304.083 38.2107 304.979 39.064C305.917 39.8747 307.155 40.28 308.691 40.28C309.715 40.28 310.739 40.088 311.763 39.704C312.787 39.32 313.64 38.8293 314.323 38.232Z" fill="white"/>
</svg>
