<svg width="334" height="50" viewBox="0 0 334 50" fill="none" xmlns="http://www.w3.org/2000/svg">
<path d="M38.976 11.776H25.152V48H14.656V11.776H0.768V2.56H38.976V11.776ZM64.582 23.168C62.1073 23.2107 59.8673 23.616 57.862 24.384C55.8567 25.152 54.406 26.304 53.51 27.84V48H43.27V14.4H52.678V21.184C53.83 18.9227 55.3233 17.152 57.158 15.872C58.9927 14.592 60.9127 13.9307 62.918 13.888C63.7713 13.888 64.326 13.9093 64.582 13.952V23.168ZM66.783 37.952C66.783 35.7333 67.4017 33.792 68.639 32.128C69.8763 30.464 71.583 29.1627 73.759 28.224C75.935 27.2427 78.431 26.752 81.247 26.752C82.6123 26.752 83.9563 26.88 85.279 27.136C86.6017 27.3493 87.7537 27.6693 88.735 28.096V26.624C88.735 22.8267 86.495 20.928 82.015 20.928C80.1377 20.928 78.367 21.248 76.703 21.888C75.0817 22.528 73.3537 23.4453 71.519 24.64L68.447 18.112C72.8843 15.2107 77.7483 13.76 83.039 13.76C88.0737 13.76 91.9777 14.976 94.751 17.408C97.567 19.7973 98.975 23.2747 98.975 27.84V36.608C98.975 37.632 99.1243 38.3573 99.423 38.784C99.7643 39.2107 100.34 39.4453 101.151 39.488V48C100.255 48.1707 99.4443 48.2987 98.719 48.384C97.9937 48.4693 97.3537 48.512 96.799 48.512C94.879 48.512 93.407 48.128 92.383 47.36C91.4017 46.592 90.783 45.5467 90.527 44.224L90.335 42.752C88.8417 44.672 87.0497 46.144 84.959 47.168C82.8683 48.1493 80.7137 48.64 78.495 48.64C76.2763 48.64 74.271 48.1707 72.479 47.232C70.7297 46.2933 69.343 45.0347 68.319 43.456C67.295 41.8347 66.783 40 66.783 37.952ZM87.135 39.232C88.2017 38.3787 88.735 37.504 88.735 36.608V33.6C87.839 33.2587 86.8577 33.0027 85.791 32.832C84.767 32.6187 83.8283 32.512 82.975 32.512C81.055 32.512 79.4763 32.9387 78.239 33.792C77.0443 34.6453 76.447 35.7333 76.447 37.056C76.447 38.208 76.895 39.2107 77.791 40.064C78.7297 40.8747 79.967 41.28 81.503 41.28C82.527 41.28 83.551 41.088 84.575 40.704C85.599 40.32 86.4523 39.8293 87.135 39.232ZM115.099 48L103.195 14.4H113.755L121.115 38.784L128.475 14.4H138.075L126.235 48H115.099ZM158.022 48.64C154.224 48.64 150.982 47.8507 148.294 46.272C145.606 44.6933 143.536 42.6027 142.086 40C140.678 37.3973 139.974 34.5813 139.974 31.552C139.974 28.3093 140.678 25.344 142.086 22.656C143.494 19.968 145.542 17.8133 148.23 16.192C150.918 14.5707 154.182 13.76 158.022 13.76C161.819 13.76 165.062 14.5707 167.75 16.192C170.438 17.8133 172.464 19.9467 173.83 22.592C175.238 25.2373 175.942 28.0747 175.942 31.104C175.942 32.3413 175.856 33.4293 175.686 34.368H150.854C151.024 36.6293 151.835 38.3573 153.286 39.552C154.779 40.704 156.464 41.28 158.342 41.28C159.835 41.28 161.264 40.9173 162.63 40.192C163.995 39.4667 164.934 38.4853 165.446 37.248L174.15 39.68C172.827 42.3253 170.758 44.48 167.942 46.144C165.168 47.808 161.862 48.64 158.022 48.64ZM150.598 28.096H165.19C164.976 25.9627 164.187 24.2773 162.822 23.04C161.499 21.76 159.856 21.12 157.894 21.12C155.931 21.12 154.267 21.76 152.902 23.04C151.579 24.32 150.811 26.0053 150.598 28.096ZM180.455 1.28H190.695V36.032C190.695 37.44 190.951 38.4427 191.463 39.04C191.975 39.6373 192.7 39.936 193.639 39.936C194.279 39.936 194.919 39.8507 195.559 39.68C196.241 39.4667 196.839 39.232 197.351 38.976L198.695 46.656C197.415 47.2533 195.943 47.7227 194.279 48.064C192.615 48.4053 191.057 48.576 189.607 48.576C186.705 48.576 184.444 47.808 182.823 46.272C181.244 44.736 180.455 42.5173 180.455 39.616V1.28ZM218.02 48.64C214.18 48.64 210.916 47.8293 208.228 46.208C205.583 44.5867 203.556 42.4533 202.148 39.808C200.74 37.1627 200.036 34.304 200.036 31.232C200.036 28.1173 200.74 25.2373 202.148 22.592C203.556 19.9467 205.604 17.8133 208.292 16.192C210.98 14.5707 214.223 13.76 218.02 13.76C221.817 13.76 225.06 14.5707 227.748 16.192C230.436 17.8133 232.484 19.9467 233.892 22.592C235.3 25.2373 236.004 28.1173 236.004 31.232C236.004 34.304 235.3 37.1627 233.892 39.808C232.484 42.4533 230.436 44.5867 227.748 46.208C225.06 47.8293 221.817 48.64 218.02 48.64ZM210.532 31.232C210.532 33.8347 211.236 35.9467 212.644 37.568C214.095 39.1893 215.887 40 218.02 40C220.111 40 221.86 39.1893 223.268 37.568C224.719 35.9467 225.444 33.8347 225.444 31.232C225.444 28.6293 224.719 26.5173 223.268 24.896C221.86 23.2747 220.111 22.464 218.02 22.464C215.887 22.464 214.095 23.2747 212.644 24.896C211.236 26.5173 210.532 28.6293 210.532 31.232ZM294.203 48H283.963V29.12C283.963 26.944 283.557 25.344 282.747 24.32C281.936 23.296 280.891 22.784 279.611 22.784C278.245 22.784 276.901 23.3387 275.579 24.448C274.256 25.5573 273.317 26.9867 272.763 28.736V48H262.523V29.12C262.523 26.9013 262.117 25.3013 261.307 24.32C260.496 23.296 259.451 22.784 258.171 22.784C256.805 22.784 255.461 23.3387 254.139 24.448C252.859 25.5573 251.92 26.9867 251.323 28.736V48H241.083V14.4H250.299V20.032C251.536 18.0267 253.221 16.4907 255.355 15.424C257.488 14.3147 259.941 13.76 262.715 13.76C265.488 13.76 267.621 14.4213 269.115 15.744C270.608 17.024 271.568 18.5387 271.995 20.288C273.275 18.24 274.96 16.64 277.051 15.488C279.184 14.336 281.573 13.76 284.219 13.76C286.352 13.76 288.059 14.1653 289.339 14.976C290.661 15.744 291.664 16.768 292.347 18.048C293.072 19.328 293.563 20.7147 293.819 22.208C294.075 23.6587 294.203 25.088 294.203 26.496V48ZM298.783 37.952C298.783 35.7333 299.402 33.792 300.639 32.128C301.876 30.464 303.583 29.1627 305.759 28.224C307.935 27.2427 310.431 26.752 313.247 26.752C314.612 26.752 315.956 26.88 317.279 27.136C318.602 27.3493 319.754 27.6693 320.735 28.096V26.624C320.735 22.8267 318.495 20.928 314.015 20.928C312.138 20.928 310.367 21.248 308.703 21.888C307.082 22.528 305.354 23.4453 303.519 24.64L300.447 18.112C304.884 15.2107 309.748 13.76 315.039 13.76C320.074 13.76 323.978 14.976 326.751 17.408C329.567 19.7973 330.975 23.2747 330.975 27.84V36.608C330.975 37.632 331.124 38.3573 331.423 38.784C331.764 39.2107 332.34 39.4453 333.151 39.488V48C332.255 48.1707 331.444 48.2987 330.719 48.384C329.994 48.4693 329.354 48.512 328.799 48.512C326.879 48.512 325.407 48.128 324.383 47.36C323.402 46.592 322.783 45.5467 322.527 44.224L322.335 42.752C320.842 44.672 319.05 46.144 316.959 47.168C314.868 48.1493 312.714 48.64 310.495 48.64C308.276 48.64 306.271 48.1707 304.479 47.232C302.73 46.2933 301.343 45.0347 300.319 43.456C299.295 41.8347 298.783 40 298.783 37.952ZM319.135 39.232C320.202 38.3787 320.735 37.504 320.735 36.608V33.6C319.839 33.2587 318.858 33.0027 317.791 32.832C316.767 32.6187 315.828 32.512 314.975 32.512C313.055 32.512 311.476 32.9387 310.239 33.792C309.044 34.6453 308.447 35.7333 308.447 37.056C308.447 38.208 308.895 39.2107 309.791 40.064C310.73 40.8747 311.967 41.28 313.503 41.28C314.527 41.28 315.551 41.088 316.575 40.704C317.599 40.32 318.452 39.8293 319.135 39.232Z" fill="#14505C"/>
<path d="M38.976 11.776V12.276H39.476V11.776H38.976ZM25.152 11.776V11.276H24.652V11.776H25.152ZM25.152 48V48.5H25.652V48H25.152ZM14.656 48H14.156V48.5H14.656V48ZM14.656 11.776H15.156V11.276H14.656V11.776ZM0.768 11.776H0.268V12.276H0.768V11.776ZM0.768 2.56V2.06H0.268V2.56H0.768ZM38.976 2.56H39.476V2.06H38.976V2.56ZM38.976 11.276H25.152V12.276H38.976V11.276ZM24.652 11.776V48H25.652V11.776H24.652ZM25.152 47.5H14.656V48.5H25.152V47.5ZM15.156 48V11.776H14.156V48H15.156ZM14.656 11.276H0.768V12.276H14.656V11.276ZM1.268 11.776V2.56H0.268V11.776H1.268ZM0.768 3.06H38.976V2.06H0.768V3.06ZM38.476 2.56V11.776H39.476V2.56H38.476ZM64.582 23.168L64.5906 23.6679L65.082 23.6595V23.168H64.582ZM57.862 24.384L58.0408 24.8509L58.0408 24.8509L57.862 24.384ZM53.51 27.84L53.0781 27.5881L53.01 27.7048V27.84H53.51ZM53.51 48V48.5H54.01V48H53.51ZM43.27 48H42.77V48.5H43.27V48ZM43.27 14.4V13.9H42.77V14.4H43.27ZM52.678 14.4H53.178V13.9H52.678V14.4ZM52.678 21.184H52.178L53.1235 21.411L52.678 21.184ZM57.158 15.872L56.8719 15.4619L56.8719 15.4619L57.158 15.872ZM62.918 13.888V13.3879L62.9074 13.3881L62.918 13.888ZM64.582 13.952H65.082V13.5284L64.6642 13.4588L64.582 13.952ZM64.5734 22.6681C62.0492 22.7116 59.7505 23.1253 57.6832 23.9171L58.0408 24.8509C59.9842 24.1067 62.1654 23.7097 64.5906 23.6679L64.5734 22.6681ZM57.6832 23.9171C55.5943 24.7171 54.0427 25.9344 53.0781 27.5881L53.9419 28.0919C54.7693 26.6736 56.119 25.5869 58.0408 24.8509L57.6832 23.9171ZM53.01 27.84V48H54.01V27.84H53.01ZM53.51 47.5H43.27V48.5H53.51V47.5ZM43.77 48V14.4H42.77V48H43.77ZM43.27 14.9H52.678V13.9H43.27V14.9ZM52.178 14.4V21.184H53.178V14.4H52.178ZM53.1235 21.411C54.2433 19.2129 55.6854 17.509 57.4441 16.2821L56.8719 15.4619C54.9613 16.7949 53.4167 18.6325 52.2325 20.957L53.1235 21.411ZM57.4441 16.2821C59.2075 15.0518 61.0332 14.4282 62.9286 14.3879L62.9074 13.3881C60.7922 13.4331 58.7778 14.1322 56.8719 15.4619L57.4441 16.2821ZM62.918 14.388C63.7812 14.388 64.2923 14.4106 64.4998 14.4452L64.6642 13.4588C64.3597 13.408 63.7615 13.388 62.918 13.388V14.388ZM64.082 13.952V23.168H65.082V13.952H64.082ZM68.639 32.128L68.2378 31.8296L68.2378 31.8296L68.639 32.128ZM73.759 28.224L73.9571 28.6832L73.9646 28.6798L73.759 28.224ZM85.279 27.136L85.184 27.6269L85.1917 27.6284L85.1994 27.6296L85.279 27.136ZM88.735 28.096L88.5356 28.5545L89.235 28.8586V28.096H88.735ZM76.703 21.888L76.5235 21.4213L76.5194 21.4229L76.703 21.888ZM71.519 24.64L71.0666 24.8529L71.3109 25.3721L71.7918 25.059L71.519 24.64ZM68.447 18.112L68.1734 17.6935L67.8094 17.9315L67.9946 18.3249L68.447 18.112ZM94.751 17.408L94.4213 17.784L94.4275 17.7893L94.751 17.408ZM99.423 38.784L99.0134 39.0707L99.0226 39.0838L99.0326 39.0963L99.423 38.784ZM101.151 39.488H101.651V39.0136L101.177 38.9887L101.151 39.488ZM101.151 48L101.245 48.4912L101.651 48.4138V48H101.151ZM98.719 48.384L98.6606 47.8874L98.719 48.384ZM92.383 47.36L92.0748 47.7538L92.083 47.76L92.383 47.36ZM90.527 44.224L90.0312 44.2887L90.0332 44.3039L90.0361 44.319L90.527 44.224ZM90.335 42.752L90.8308 42.6873L90.6758 41.4994L89.9403 42.445L90.335 42.752ZM84.959 47.168L85.1715 47.6207L85.1789 47.617L84.959 47.168ZM72.479 47.232L72.2426 47.6726L72.247 47.6749L72.479 47.232ZM68.319 43.456L67.8962 43.723L67.8995 43.7281L68.319 43.456ZM87.135 39.232L86.8227 38.8416L86.814 38.8485L86.8057 38.8557L87.135 39.232ZM88.735 33.6H89.235V33.2554L88.913 33.1328L88.735 33.6ZM85.791 32.832L85.689 33.3215L85.7005 33.3239L85.712 33.3257L85.791 32.832ZM78.239 33.792L77.9551 33.3803L77.9484 33.3851L78.239 33.792ZM77.791 40.064L77.4462 40.4261L77.455 40.4345L77.4642 40.4424L77.791 40.064ZM84.575 40.704L84.3994 40.2358L84.3994 40.2358L84.575 40.704ZM67.283 37.952C67.283 35.8328 67.8716 33.9979 69.0402 32.4264L68.2378 31.8296C66.9317 33.5861 66.283 35.6338 66.283 37.952H67.283ZM69.0402 32.4264C70.218 30.8424 71.85 29.592 73.957 28.6831L73.561 27.7649C71.316 28.7333 69.5346 30.0856 68.2378 31.8296L69.0402 32.4264ZM73.9646 28.6798C76.0654 27.7324 78.4893 27.252 81.247 27.252V26.252C78.3727 26.252 75.8046 26.753 73.5534 27.7682L73.9646 28.6798ZM81.247 27.252C82.5809 27.252 83.893 27.377 85.184 27.6269L85.374 26.6451C84.0196 26.383 82.6438 26.252 81.247 26.252V27.252ZM85.1994 27.6296C86.4907 27.8379 87.6008 28.1481 88.5356 28.5545L88.9344 27.6375C87.9065 27.1906 86.7127 26.8608 85.3586 26.6424L85.1994 27.6296ZM89.235 28.096V26.624H88.235V28.096H89.235ZM89.235 26.624C89.235 24.6246 88.6414 23.0412 87.3783 21.9706C86.131 20.9134 84.3137 20.428 82.015 20.428V21.428C84.1963 21.428 85.739 21.892 86.7317 22.7334C87.7086 23.5615 88.235 24.826 88.235 26.624H89.235ZM82.015 20.428C80.0796 20.428 78.2478 20.7581 76.5235 21.4213L76.8825 22.3547C78.4862 21.7379 80.1957 21.428 82.015 21.428V20.428ZM76.5194 21.4229C74.8601 22.0779 73.1022 23.0124 71.2462 24.221L71.7918 25.059C73.6052 23.8782 75.3032 22.9781 76.8866 22.3531L76.5194 21.4229ZM71.9714 24.4271L68.8994 17.8991L67.9946 18.3249L71.0666 24.8529L71.9714 24.4271ZM68.7206 18.5305C73.0768 15.6822 77.8457 14.26 83.039 14.26V13.26C77.6509 13.26 72.6919 14.7391 68.1734 17.6935L68.7206 18.5305ZM83.039 14.26C87.9968 14.26 91.7679 15.457 94.4213 17.7839L95.0807 17.0321C92.1875 14.495 88.1505 13.26 83.039 13.26V14.26ZM94.4275 17.7893C97.1056 20.0616 98.475 23.3837 98.475 27.84H99.475C99.475 23.1656 98.0284 19.5331 95.0745 17.0267L94.4275 17.7893ZM98.475 27.84V36.608H99.475V27.84H98.475ZM98.475 36.608C98.475 37.6516 98.6216 38.511 99.0134 39.0707L99.8326 38.4973C99.6271 38.2036 99.475 37.6124 99.475 36.608H98.475ZM99.0326 39.0963C99.499 39.6794 100.241 39.9408 101.125 39.9873L101.177 38.9887C100.439 38.9498 100.03 38.7419 99.8134 38.4717L99.0326 39.0963ZM100.651 39.488V48H101.651V39.488H100.651ZM101.057 47.5088C100.17 47.6778 99.3717 47.8038 98.6606 47.8874L98.7774 48.8806C99.517 48.7936 100.34 48.6635 101.245 48.4912L101.057 47.5088ZM98.6606 47.8874C97.949 47.9711 97.3292 48.012 96.799 48.012V49.012C97.3782 49.012 98.0384 48.9675 98.7774 48.8806L98.6606 47.8874ZM96.799 48.012C94.9358 48.012 93.5868 47.6378 92.683 46.96L92.083 47.76C93.2272 48.6182 94.8222 49.012 96.799 49.012V48.012ZM92.6912 46.9662C91.8128 46.2788 91.253 45.3437 91.0179 44.129L90.0361 44.319C90.313 45.7497 90.9906 46.9052 92.0748 47.7538L92.6912 46.9662ZM91.0228 44.1593L90.8308 42.6873L89.8392 42.8167L90.0312 44.2887L91.0228 44.1593ZM89.9403 42.445C88.4915 44.3078 86.7584 45.7299 84.7391 46.719L85.1789 47.617C87.341 46.5581 89.1918 45.0362 90.7297 43.059L89.9403 42.445ZM84.7465 46.7154C82.7196 47.6668 80.6372 48.14 78.495 48.14V49.14C80.7901 49.14 83.0171 48.6318 85.1715 47.6206L84.7465 46.7154ZM78.495 48.14C76.3492 48.14 74.4247 47.6867 72.711 46.7891L72.247 47.6749C74.1173 48.6546 76.2035 49.14 78.495 49.14V48.14ZM72.7154 46.7914C71.0361 45.8903 69.7141 44.688 68.7385 43.1839L67.8995 43.7281C68.9719 45.3814 70.4232 46.6963 72.2426 47.6726L72.7154 46.7914ZM68.7417 43.189C67.7717 41.6531 67.283 39.9122 67.283 37.952H66.283C66.283 40.0878 66.8183 42.0163 67.8963 43.723L68.7417 43.189ZM87.4473 39.6224C88.5693 38.7249 89.235 37.7218 89.235 36.608H88.235C88.235 37.2862 87.8341 38.0324 86.8227 38.8416L87.4473 39.6224ZM89.235 36.608V33.6H88.235V36.608H89.235ZM88.913 33.1328C87.9813 32.7778 86.9663 32.5137 85.87 32.3383L85.712 33.3257C86.749 33.4916 87.6967 33.7395 88.557 34.0672L88.913 33.1328ZM85.893 32.3425C84.8426 32.1237 83.8692 32.012 82.975 32.012V33.012C83.7874 33.012 84.6914 33.1136 85.689 33.3215L85.893 32.3425ZM82.975 32.012C80.9817 32.012 79.2964 32.4554 77.9551 33.3804L78.5229 34.2036C79.6563 33.4219 81.1283 33.012 82.975 33.012V32.012ZM77.9484 33.3851C76.6391 34.3203 75.947 35.5523 75.947 37.056H76.947C76.947 35.9144 77.4496 34.9703 78.5296 34.1989L77.9484 33.3851ZM75.947 37.056C75.947 38.3557 76.4593 39.4862 77.4462 40.4261L78.1358 39.7019C77.3307 38.9352 76.947 38.0603 76.947 37.056H75.947ZM77.4642 40.4424C78.5139 41.3489 79.8767 41.78 81.503 41.78V40.78C80.0573 40.78 78.9455 40.4004 78.1178 39.6856L77.4642 40.4424ZM81.503 41.78C82.5909 41.78 83.6743 41.5758 84.7506 41.1722L84.3994 40.2358C83.4277 40.6002 82.4631 40.78 81.503 40.78V41.78ZM84.7506 41.1722C85.8196 40.7713 86.7281 40.2525 87.4643 39.6083L86.8057 38.8557C86.1766 39.4062 85.3784 39.8687 84.3994 40.2358L84.7506 41.1722ZM115.099 48L114.628 48.167L114.746 48.5H115.099V48ZM103.195 14.4V13.9H102.487L102.724 14.567L103.195 14.4ZM113.755 14.4L114.234 14.2555L114.126 13.9H113.755V14.4ZM121.115 38.784L120.636 38.9285L121.115 40.5143L121.594 38.9285L121.115 38.784ZM128.475 14.4V13.9H128.104L127.996 14.2555L128.475 14.4ZM138.075 14.4L138.547 14.5662L138.781 13.9H138.075V14.4ZM126.235 48V48.5H126.589L126.707 48.1662L126.235 48ZM115.57 47.833L103.666 14.233L102.724 14.567L114.628 48.167L115.57 47.833ZM103.195 14.9H113.755V13.9H103.195V14.9ZM113.276 14.5445L120.636 38.9285L121.594 38.6395L114.234 14.2555L113.276 14.5445ZM121.594 38.9285L128.954 14.5445L127.996 14.2555L120.636 38.6395L121.594 38.9285ZM128.475 14.9H138.075V13.9H128.475V14.9ZM137.603 14.2338L125.763 47.8338L126.707 48.1662L138.547 14.5662L137.603 14.2338ZM126.235 47.5H115.099V48.5H126.235V47.5ZM148.294 46.272L148.547 45.8409L148.547 45.8409L148.294 46.272ZM142.086 40L141.646 40.2379L141.649 40.2434L142.086 40ZM142.086 22.656L141.643 22.424L141.643 22.424L142.086 22.656ZM148.23 16.192L148.488 16.6201L148.488 16.6201L148.23 16.192ZM167.75 16.192L167.491 16.6201L167.491 16.6201L167.75 16.192ZM173.83 22.592L173.385 22.8213L173.388 22.8269L173.83 22.592ZM175.686 34.368V34.868H176.103L176.177 34.4574L175.686 34.368ZM150.854 34.368V33.868H150.314L150.355 34.4056L150.854 34.368ZM153.286 39.552L152.968 39.938L152.974 39.943L152.98 39.9479L153.286 39.552ZM165.446 37.248L165.58 36.7664L165.153 36.6471L164.983 37.0568L165.446 37.248ZM174.15 39.68L174.597 39.9036L174.868 39.3615L174.284 39.1984L174.15 39.68ZM167.942 46.144L167.687 45.7135L167.684 45.7153L167.942 46.144ZM150.598 28.096L150.1 28.0452L150.044 28.596H150.598V28.096ZM165.19 28.096V28.596H165.742L165.687 28.0462L165.19 28.096ZM162.822 23.04L162.474 23.3993L162.48 23.405L162.486 23.4105L162.822 23.04ZM152.902 23.04L152.559 22.6752L152.554 22.6807L152.902 23.04ZM158.022 48.14C154.294 48.14 151.143 47.3655 148.547 45.8409L148.04 46.7031C150.82 48.3358 154.155 49.14 158.022 49.14V48.14ZM148.547 45.8409C145.932 44.3051 143.928 42.2778 142.522 39.7566L141.649 40.2434C143.145 42.9276 145.279 45.0815 148.04 46.7031L148.547 45.8409ZM142.525 39.7621C141.158 37.2343 140.474 34.5003 140.474 31.552H139.474C139.474 34.6624 140.197 37.5604 141.646 40.2379L142.525 39.7621ZM140.474 31.552C140.474 28.3844 141.16 25.4995 142.528 22.888L141.643 22.424C140.195 25.1885 139.474 28.2342 139.474 31.552H140.474ZM142.528 22.888C143.892 20.2839 145.875 18.1959 148.488 16.6201L147.971 15.7639C145.208 17.4307 143.095 19.6521 141.643 22.424L142.528 22.888ZM148.488 16.6201C151.082 15.0553 154.252 14.26 158.022 14.26V13.26C154.111 13.26 150.753 14.086 147.971 15.7639L148.488 16.6201ZM158.022 14.26C161.747 14.26 164.896 15.0548 167.491 16.6201L168.008 15.7639C165.227 14.0865 161.891 13.26 158.022 13.26V14.26ZM167.491 16.6201C170.105 18.1964 172.065 20.2628 173.385 22.8213L174.274 22.3627C172.864 19.6306 170.77 17.4302 168.008 15.7639L167.491 16.6201ZM173.388 22.8269C174.757 25.3991 175.442 28.1557 175.442 31.104H176.442C176.442 27.9937 175.718 25.0755 174.271 22.3571L173.388 22.8269ZM175.442 31.104C175.442 32.3196 175.358 33.3766 175.194 34.2786L176.177 34.4574C176.355 33.4821 176.442 32.363 176.442 31.104H175.442ZM175.686 33.868H150.854V34.868H175.686V33.868ZM150.355 34.4056C150.534 36.7726 151.39 38.6391 152.968 39.938L153.603 39.166C152.279 38.0755 151.515 36.486 151.352 34.3304L150.355 34.4056ZM152.98 39.9479C154.56 41.1671 156.353 41.78 158.342 41.78V40.78C156.575 40.78 154.997 40.2409 153.591 39.1561L152.98 39.9479ZM158.342 41.78C159.92 41.78 161.429 41.3959 162.864 40.6336L162.395 39.7504C161.099 40.4388 159.75 40.78 158.342 40.78V41.78ZM162.864 40.6336C164.315 39.8626 165.344 38.8001 165.908 37.4392L164.983 37.0568C164.523 38.1705 163.674 39.0707 162.395 39.7504L162.864 40.6336ZM165.311 37.7296L174.015 40.1616L174.284 39.1984L165.58 36.7664L165.311 37.7296ZM173.702 39.4564C172.427 42.0067 170.429 44.0931 167.687 45.7135L168.196 46.5745C171.086 44.8669 173.227 42.644 174.597 39.9036L173.702 39.4564ZM167.684 45.7153C165.002 47.3246 161.788 48.14 158.022 48.14V49.14C161.935 49.14 165.334 48.2914 168.199 46.5727L167.684 45.7153ZM150.598 28.596H165.19V27.596H150.598V28.596ZM165.687 28.0462C165.464 25.8111 164.629 24.0034 163.157 22.6695L162.486 23.4105C163.744 24.5512 164.489 26.1142 164.692 28.1458L165.687 28.0462ZM163.169 22.6807C161.747 21.3041 159.976 20.62 157.894 20.62V21.62C159.736 21.62 161.251 22.2159 162.474 23.3993L163.169 22.6807ZM157.894 20.62C155.811 20.62 154.022 21.3038 152.56 22.6752L153.243 23.4048C154.511 22.2162 156.051 21.62 157.894 21.62V20.62ZM152.554 22.6807C151.134 24.0542 150.324 25.8549 150.1 28.0452L151.095 28.1468C151.298 26.1558 152.023 24.5858 153.249 23.3993L152.554 22.6807ZM180.455 1.28V0.779999H179.955V1.28H180.455ZM190.695 1.28H191.195V0.779999H190.695V1.28ZM191.463 39.04L191.083 39.3654L191.083 39.3654L191.463 39.04ZM195.559 39.68L195.687 40.1631L195.698 40.1604L195.708 40.1572L195.559 39.68ZM197.351 38.976L197.843 38.8898L197.727 38.2286L197.127 38.5288L197.351 38.976ZM198.695 46.656L198.906 47.1091L199.253 46.9471L199.187 46.5698L198.695 46.656ZM194.279 48.064L194.379 48.5538L194.379 48.5538L194.279 48.064ZM182.823 46.272L182.474 46.6304L182.479 46.635L182.823 46.272ZM180.455 1.78H190.695V0.779999H180.455V1.78ZM190.195 1.28V36.032H191.195V1.28H190.195ZM190.195 36.032C190.195 37.4749 190.452 38.6292 191.083 39.3654L191.842 38.7146C191.449 38.2562 191.195 37.4051 191.195 36.032H190.195ZM191.083 39.3654C191.708 40.0951 192.585 40.436 193.639 40.436V39.436C192.815 39.436 192.241 39.1796 191.842 38.7146L191.083 39.3654ZM193.639 40.436C194.323 40.436 195.007 40.3446 195.687 40.1631L195.43 39.1969C194.83 39.3567 194.234 39.436 193.639 39.436V40.436ZM195.708 40.1572C196.41 39.9378 197.033 39.6937 197.574 39.4232L197.127 38.5288C196.644 38.7703 196.072 38.9955 195.409 39.2028L195.708 40.1572ZM196.858 39.0622L198.202 46.7422L199.187 46.5698L197.843 38.8898L196.858 39.0622ZM198.483 46.2029C197.245 46.7808 195.811 47.2392 194.178 47.5742L194.379 48.5538C196.074 48.2061 197.584 47.7259 198.906 47.1091L198.483 46.2029ZM194.178 47.5742C192.542 47.9099 191.018 48.076 189.607 48.076V49.076C191.096 49.076 192.687 48.9008 194.379 48.5538L194.178 47.5742ZM189.607 48.076C186.794 48.076 184.67 47.3332 183.166 45.909L182.479 46.635C184.218 48.2829 186.617 49.076 189.607 49.076V48.076ZM183.171 45.9136C181.717 44.4989 180.955 42.427 180.955 39.616H179.955C179.955 42.6077 180.771 44.9731 182.474 46.6304L183.171 45.9136ZM180.955 39.616V1.28H179.955V39.616H180.955ZM208.228 46.208L207.967 46.6343L207.97 46.6361L208.228 46.208ZM202.148 39.808L202.589 39.5731L202.589 39.5731L202.148 39.808ZM202.148 22.592L202.589 22.8269L202.589 22.8269L202.148 22.592ZM208.292 16.192L208.55 16.6201L208.55 16.6201L208.292 16.192ZM227.748 16.192L227.49 16.6201L227.49 16.6201L227.748 16.192ZM227.748 46.208L227.49 45.7799L227.49 45.7799L227.748 46.208ZM212.644 37.568L212.266 37.8959L212.271 37.9014L212.644 37.568ZM223.268 37.568L222.895 37.2346L222.89 37.2402L223.268 37.568ZM223.268 24.896L222.89 25.2239L222.895 25.2294L223.268 24.896ZM212.644 24.896L212.271 24.5626L212.266 24.5682L212.644 24.896ZM218.02 48.14C214.251 48.14 211.081 47.3447 208.486 45.7799L207.97 46.6361C210.751 48.314 214.109 49.14 218.02 49.14V48.14ZM208.489 45.7817C205.917 44.2052 203.954 42.1368 202.589 39.5731L201.707 40.0429C203.158 42.7698 205.248 44.9681 207.967 46.6343L208.489 45.7817ZM202.589 39.5731C201.221 37.0019 200.536 34.2242 200.536 31.232H199.536C199.536 34.3838 200.259 37.3234 201.707 40.0429L202.589 39.5731ZM200.536 31.232C200.536 28.1959 201.221 25.397 202.589 22.8269L201.707 22.3571C200.259 25.0776 199.536 28.0387 199.536 31.232H200.536ZM202.589 22.8269C203.953 20.2652 205.936 18.1971 208.55 16.6201L208.034 15.7639C205.272 17.4295 203.159 19.6281 201.707 22.3571L202.589 22.8269ZM208.55 16.6201C211.145 15.0548 214.295 14.26 218.02 14.26V13.26C214.151 13.26 210.815 14.0865 208.034 15.7639L208.55 16.6201ZM218.02 14.26C221.745 14.26 224.895 15.0548 227.49 16.6201L228.006 15.7639C225.225 14.0865 221.889 13.26 218.02 13.26V14.26ZM227.49 16.6201C230.104 18.1971 232.087 20.2652 233.451 22.8269L234.333 22.3571C232.881 19.6281 230.768 17.4295 228.006 15.7639L227.49 16.6201ZM233.451 22.8269C234.819 25.397 235.504 28.1959 235.504 31.232H236.504C236.504 28.0387 235.781 25.0776 234.333 22.3571L233.451 22.8269ZM235.504 31.232C235.504 34.2242 234.819 37.0019 233.451 39.5731L234.333 40.0429C235.781 37.3234 236.504 34.3838 236.504 31.232H235.504ZM233.451 39.5731C232.087 42.1348 230.104 44.2029 227.49 45.7799L228.006 46.6361C230.768 44.9705 232.881 42.7719 234.333 40.0429L233.451 39.5731ZM227.49 45.7799C224.895 47.3452 221.745 48.14 218.02 48.14V49.14C221.889 49.14 225.225 48.3135 228.006 46.6361L227.49 45.7799ZM210.032 31.232C210.032 33.9284 210.764 36.1652 212.266 37.8958L213.022 37.2402C211.708 35.7281 211.032 33.7409 211.032 31.232H210.032ZM212.271 37.9014C213.815 39.6263 215.741 40.5 218.02 40.5V39.5C216.032 39.5 214.375 38.7523 213.017 37.2346L212.271 37.9014ZM218.02 40.5C220.26 40.5 222.146 39.6231 223.646 37.8958L222.89 37.2402C221.574 38.7555 219.961 39.5 218.02 39.5V40.5ZM223.641 37.9014C225.189 36.171 225.944 33.9322 225.944 31.232H224.944C224.944 33.7371 224.249 35.7223 222.895 37.2346L223.641 37.9014ZM225.944 31.232C225.944 28.5318 225.189 26.293 223.641 24.5626L222.895 25.2294C224.249 26.7417 224.944 28.7269 224.944 31.232H225.944ZM223.646 24.5682C222.146 22.8409 220.26 21.964 218.02 21.964V22.964C219.961 22.964 221.574 23.7085 222.89 25.2238L223.646 24.5682ZM218.02 21.964C215.741 21.964 213.815 22.8377 212.271 24.5626L213.017 25.2294C214.375 23.7117 216.032 22.964 218.02 22.964V21.964ZM212.266 24.5682C210.764 26.2988 210.032 28.5356 210.032 31.232H211.032C211.032 28.7231 211.708 26.7359 213.022 25.2238L212.266 24.5682ZM294.203 48V48.5H294.703V48H294.203ZM283.963 48H283.463V48.5H283.963V48ZM282.747 24.32L282.354 24.6304L282.354 24.6304L282.747 24.32ZM275.579 24.448L275.9 24.8311L275.9 24.8311L275.579 24.448ZM272.763 28.736L272.286 28.5849L272.263 28.6586V28.736H272.763ZM272.763 48V48.5H273.263V48H272.763ZM262.523 48H262.023V48.5H262.523V48ZM261.307 24.32L260.914 24.6304L260.921 24.6384L261.307 24.32ZM254.139 24.448L253.817 24.0649L253.811 24.0702L254.139 24.448ZM251.323 28.736L250.849 28.5744L250.823 28.653V28.736H251.323ZM251.323 48V48.5H251.823V48H251.323ZM241.083 48H240.583V48.5H241.083V48ZM241.083 14.4V13.9H240.583V14.4H241.083ZM250.299 14.4H250.799V13.9H250.299V14.4ZM250.299 20.032H249.799V21.7945L250.724 20.2946L250.299 20.032ZM255.355 15.424L255.578 15.8713L255.585 15.8676L255.355 15.424ZM269.115 15.744L268.783 16.1183L268.789 16.1236L269.115 15.744ZM271.995 20.288L271.509 20.4065L271.79 21.5589L272.419 20.553L271.995 20.288ZM277.051 15.488L276.813 15.048L276.809 15.0501L277.051 15.488ZM289.339 14.976L289.071 15.3984L289.079 15.4036L289.087 15.4084L289.339 14.976ZM292.347 18.048L291.905 18.2834L291.911 18.2945L292.347 18.048ZM293.819 22.208L293.326 22.2925L293.326 22.2949L293.819 22.208ZM294.203 47.5H283.963V48.5H294.203V47.5ZM284.463 48V29.12H283.463V48H284.463ZM284.463 29.12C284.463 26.9001 284.052 25.1639 283.139 24.0096L282.354 24.6304C283.062 25.5241 283.463 26.9879 283.463 29.12H284.463ZM283.139 24.0096C282.235 22.8687 281.047 22.284 279.611 22.284V23.284C280.734 23.284 281.636 23.7233 282.354 24.6304L283.139 24.0096ZM279.611 22.284C278.099 22.284 276.645 22.9005 275.257 24.0649L275.9 24.8311C277.157 23.7768 278.391 23.284 279.611 23.284V22.284ZM275.257 24.0649C273.857 25.2392 272.867 26.751 272.286 28.5849L273.239 28.8871C273.767 27.2223 274.655 25.8755 275.9 24.8311L275.257 24.0649ZM272.263 28.736V48H273.263V28.736H272.263ZM272.763 47.5H262.523V48.5H272.763V47.5ZM263.023 48V29.12H262.023V48H263.023ZM263.023 29.12C263.023 26.8631 262.615 25.1183 261.692 24.0016L260.921 24.6384C261.62 25.4844 262.023 26.9396 262.023 29.12H263.023ZM261.699 24.0096C260.795 22.8687 259.607 22.284 258.171 22.284V23.284C259.294 23.284 260.196 23.7233 260.914 24.6304L261.699 24.0096ZM258.171 22.284C256.659 22.284 255.205 22.9005 253.817 24.0649L254.46 24.8311C255.717 23.7768 256.951 23.284 258.171 23.284V22.284ZM253.811 24.0702C252.458 25.2426 251.473 26.7493 250.849 28.5744L251.796 28.8976C252.367 27.2241 253.259 25.872 254.466 24.8258L253.811 24.0702ZM250.823 28.736V48H251.823V28.736H250.823ZM251.323 47.5H241.083V48.5H251.323V47.5ZM241.583 48V14.4H240.583V48H241.583ZM241.083 14.9H250.299V13.9H241.083V14.9ZM249.799 14.4V20.032H250.799V14.4H249.799ZM250.724 20.2946C251.912 18.3694 253.527 16.8968 255.578 15.8712L255.131 14.9768C252.915 16.0845 251.16 17.684 249.873 19.7694L250.724 20.2946ZM255.585 15.8676C257.637 14.8006 260.009 14.26 262.715 14.26V13.26C259.873 13.26 257.339 13.8287 255.124 14.9804L255.585 15.8676ZM262.715 14.26C265.413 14.26 267.411 14.9034 268.783 16.1183L269.446 15.3697C267.831 13.9392 265.562 13.26 262.715 13.26V14.26ZM268.789 16.1236C270.211 17.3421 271.109 18.7683 271.509 20.4065L272.48 20.1695C272.026 18.309 271.005 16.7059 269.44 15.3644L268.789 16.1236ZM272.419 20.553C273.654 18.5764 275.277 17.0363 277.292 15.9259L276.809 15.0501C274.643 16.2437 272.895 17.9036 271.571 20.023L272.419 20.553ZM277.288 15.928C279.342 14.8189 281.648 14.26 284.219 14.26V13.26C281.498 13.26 279.026 13.8531 276.813 15.048L277.288 15.928ZM284.219 14.26C286.294 14.26 287.897 14.6551 289.071 15.3984L289.606 14.5536C288.22 13.6756 286.41 13.26 284.219 13.26V14.26ZM289.087 15.4084C290.334 16.1323 291.269 17.0899 291.905 18.2833L292.788 17.8127C292.059 16.446 290.988 15.3557 289.59 14.5436L289.087 15.4084ZM291.911 18.2945C292.607 19.5227 293.079 20.8544 293.326 22.2925L294.311 22.1235C294.046 20.575 293.536 19.1333 292.782 17.8015L291.911 18.2945ZM293.326 22.2949C293.577 23.7182 293.703 25.1184 293.703 26.496H294.703C294.703 25.0576 294.572 23.5991 294.311 22.1211L293.326 22.2949ZM293.703 26.496V48H294.703V26.496H293.703ZM300.639 32.128L300.238 31.8296L300.238 31.8296L300.639 32.128ZM305.759 28.224L305.957 28.6832L305.965 28.6798L305.759 28.224ZM317.279 27.136L317.184 27.6269L317.192 27.6284L317.199 27.6296L317.279 27.136ZM320.735 28.096L320.536 28.5545L321.235 28.8586V28.096H320.735ZM308.703 21.888L308.524 21.4213L308.519 21.4229L308.703 21.888ZM303.519 24.64L303.067 24.8529L303.311 25.3721L303.792 25.059L303.519 24.64ZM300.447 18.112L300.173 17.6935L299.809 17.9315L299.995 18.3249L300.447 18.112ZM326.751 17.408L326.421 17.784L326.428 17.7893L326.751 17.408ZM331.423 38.784L331.013 39.0707L331.023 39.0838L331.033 39.0963L331.423 38.784ZM333.151 39.488H333.651V39.0136L333.177 38.9887L333.151 39.488ZM333.151 48L333.245 48.4912L333.651 48.4138V48H333.151ZM330.719 48.384L330.661 47.8874L330.719 48.384ZM324.383 47.36L324.075 47.7538L324.083 47.76L324.383 47.36ZM322.527 44.224L322.031 44.2887L322.033 44.3039L322.036 44.319L322.527 44.224ZM322.335 42.752L322.831 42.6873L322.676 41.4994L321.94 42.445L322.335 42.752ZM316.959 47.168L317.171 47.6207L317.179 47.617L316.959 47.168ZM304.479 47.232L304.243 47.6726L304.247 47.6749L304.479 47.232ZM300.319 43.456L299.896 43.723L299.9 43.7281L300.319 43.456ZM319.135 39.232L318.823 38.8416L318.814 38.8485L318.806 38.8557L319.135 39.232ZM320.735 33.6H321.235V33.2554L320.913 33.1328L320.735 33.6ZM317.791 32.832L317.689 33.3215L317.7 33.3239L317.712 33.3257L317.791 32.832ZM310.239 33.792L309.955 33.3803L309.948 33.3851L310.239 33.792ZM309.791 40.064L309.446 40.4261L309.455 40.4345L309.464 40.4424L309.791 40.064ZM316.575 40.704L316.399 40.2358L316.399 40.2358L316.575 40.704ZM299.283 37.952C299.283 35.8328 299.872 33.9979 301.04 32.4264L300.238 31.8296C298.932 33.5861 298.283 35.6338 298.283 37.952H299.283ZM301.04 32.4264C302.218 30.8424 303.85 29.592 305.957 28.6831L305.561 27.7649C303.316 28.7333 301.535 30.0856 300.238 31.8296L301.04 32.4264ZM305.965 28.6798C308.065 27.7324 310.489 27.252 313.247 27.252V26.252C310.373 26.252 307.805 26.753 305.553 27.7682L305.965 28.6798ZM313.247 27.252C314.581 27.252 315.893 27.377 317.184 27.6269L317.374 26.6451C316.02 26.383 314.644 26.252 313.247 26.252V27.252ZM317.199 27.6296C318.491 27.8379 319.601 28.1481 320.536 28.5545L320.934 27.6375C319.907 27.1906 318.713 26.8608 317.359 26.6424L317.199 27.6296ZM321.235 28.096V26.624H320.235V28.096H321.235ZM321.235 26.624C321.235 24.6246 320.641 23.0412 319.378 21.9706C318.131 20.9134 316.314 20.428 314.015 20.428V21.428C316.196 21.428 317.739 21.892 318.732 22.7334C319.709 23.5615 320.235 24.826 320.235 26.624H321.235ZM314.015 20.428C312.08 20.428 310.248 20.7581 308.524 21.4213L308.882 22.3547C310.486 21.7379 312.196 21.428 314.015 21.428V20.428ZM308.519 21.4229C306.86 22.0779 305.102 23.0124 303.246 24.221L303.792 25.059C305.605 23.8782 307.303 22.9781 308.887 22.3531L308.519 21.4229ZM303.971 24.4271L300.899 17.8991L299.995 18.3249L303.067 24.8529L303.971 24.4271ZM300.721 18.5305C305.077 15.6822 309.846 14.26 315.039 14.26V13.26C309.651 13.26 304.692 14.7391 300.173 17.6935L300.721 18.5305ZM315.039 14.26C319.997 14.26 323.768 15.457 326.421 17.7839L327.081 17.0321C324.187 14.495 320.15 13.26 315.039 13.26V14.26ZM326.428 17.7893C329.106 20.0616 330.475 23.3837 330.475 27.84H331.475C331.475 23.1656 330.028 19.5331 327.074 17.0267L326.428 17.7893ZM330.475 27.84V36.608H331.475V27.84H330.475ZM330.475 36.608C330.475 37.6516 330.622 38.511 331.013 39.0707L331.833 38.4973C331.627 38.2036 331.475 37.6124 331.475 36.608H330.475ZM331.033 39.0963C331.499 39.6794 332.241 39.9408 333.125 39.9873L333.177 38.9887C332.439 38.9498 332.03 38.7419 331.813 38.4717L331.033 39.0963ZM332.651 39.488V48H333.651V39.488H332.651ZM333.057 47.5088C332.17 47.6778 331.372 47.8038 330.661 47.8874L330.777 48.8806C331.517 48.7936 332.34 48.6635 333.245 48.4912L333.057 47.5088ZM330.661 47.8874C329.949 47.9711 329.329 48.012 328.799 48.012V49.012C329.378 49.012 330.038 48.9675 330.777 48.8806L330.661 47.8874ZM328.799 48.012C326.936 48.012 325.587 47.6378 324.683 46.96L324.083 47.76C325.227 48.6182 326.822 49.012 328.799 49.012V48.012ZM324.691 46.9662C323.813 46.2788 323.253 45.3437 323.018 44.129L322.036 44.319C322.313 45.7497 322.991 46.9052 324.075 47.7538L324.691 46.9662ZM323.023 44.1593L322.831 42.6873L321.839 42.8167L322.031 44.2887L323.023 44.1593ZM321.94 42.445C320.492 44.3078 318.758 45.7299 316.739 46.719L317.179 47.617C319.341 46.5581 321.192 45.0362 322.73 43.059L321.94 42.445ZM316.747 46.7154C314.72 47.6668 312.637 48.14 310.495 48.14V49.14C312.79 49.14 315.017 48.6318 317.171 47.6206L316.747 46.7154ZM310.495 48.14C308.349 48.14 306.425 47.6867 304.711 46.7891L304.247 47.6749C306.117 48.6546 308.203 49.14 310.495 49.14V48.14ZM304.715 46.7914C303.036 45.8903 301.714 44.688 300.738 43.1839L299.9 43.7281C300.972 45.3814 302.423 46.6963 304.243 47.6726L304.715 46.7914ZM300.742 43.189C299.772 41.6531 299.283 39.9122 299.283 37.952H298.283C298.283 40.0878 298.818 42.0163 299.896 43.723L300.742 43.189ZM319.447 39.6224C320.569 38.7249 321.235 37.7218 321.235 36.608H320.235C320.235 37.2862 319.834 38.0324 318.823 38.8416L319.447 39.6224ZM321.235 36.608V33.6H320.235V36.608H321.235ZM320.913 33.1328C319.981 32.7778 318.966 32.5137 317.87 32.3383L317.712 33.3257C318.749 33.4916 319.697 33.7395 320.557 34.0672L320.913 33.1328ZM317.893 32.3425C316.843 32.1237 315.869 32.012 314.975 32.012V33.012C315.787 33.012 316.691 33.1136 317.689 33.3215L317.893 32.3425ZM314.975 32.012C312.982 32.012 311.296 32.4554 309.955 33.3804L310.523 34.2036C311.656 33.4219 313.128 33.012 314.975 33.012V32.012ZM309.948 33.3851C308.639 34.3203 307.947 35.5523 307.947 37.056H308.947C308.947 35.9144 309.45 34.9703 310.53 34.1989L309.948 33.3851ZM307.947 37.056C307.947 38.3557 308.459 39.4862 309.446 40.4261L310.136 39.7019C309.331 38.9352 308.947 38.0603 308.947 37.056H307.947ZM309.464 40.4424C310.514 41.3489 311.877 41.78 313.503 41.78V40.78C312.057 40.78 310.945 40.4004 310.118 39.6856L309.464 40.4424ZM313.503 41.78C314.591 41.78 315.674 41.5758 316.751 41.1722L316.399 40.2358C315.428 40.6002 314.463 40.78 313.503 40.78V41.78ZM316.751 41.1722C317.82 40.7713 318.728 40.2525 319.464 39.6083L318.806 38.8557C318.177 39.4062 317.378 39.8687 316.399 40.2358L316.751 41.1722Z" fill="#FEFEFE"/>
</svg>
